<svg width="64" height="64" viewBox="0 0 64 64" fill="none" xmlns="http://www.w3.org/2000/svg">
<rect width="64" height="64" rx="8" fill="url(#paint0_linear_201_574)"/>
<path d="M49.9494 22.4267H38.8119V15.4314C38.8119 13.1979 36.9949 11.3809 34.7614 11.3809H14.0505C11.8171 11.3809 10 13.1979 10 15.4314V25.1282C10 27.3606 11.8159 29.1787 14.0513 29.1787H14.0626L23.8073 29.1507V32.1311H18.1927C15.9255 32.1311 14.1422 33.9771 14.1422 36.1816V38.9431C14.1422 41.1392 15.916 42.9936 18.1927 42.9936H25.0963C27.3296 42.9936 29.1468 41.1886 29.1468 38.9431V38.8401L32.8922 38.8294C32.3848 39.655 32.0915 40.6257 32.0915 41.6639V43.2828C32.0915 44.3637 32.5127 45.3807 33.2782 46.1473L37.6145 50.4835V52.711C37.6145 53.4229 38.1916 54.0001 38.9035 54.0001H49.9493C50.6612 54.0001 51.2384 53.4229 51.2384 52.711V50.7465L51.7612 50.4852C53.1421 49.7942 53.9999 48.4061 53.9999 46.8623V42.2748C53.9999 40.6132 52.9913 39.1347 51.4652 38.5193C51.964 38.3182 52.4221 38.0173 52.8139 37.6255C53.5788 36.8607 54 35.8437 54 34.7615V26.4772C54 24.2399 52.1903 22.4267 49.9494 22.4267ZM14.0551 26.6006H14.051C13.2502 26.6006 12.5781 25.9531 12.5781 25.1282V15.4314C12.5781 14.6195 13.2386 13.959 14.0505 13.959H34.7614C35.5733 13.959 36.2338 14.6195 36.2338 15.4314V22.4267H27.8578C25.5969 22.4267 23.8073 24.2623 23.8073 26.4772V26.5725L14.0551 26.6006ZM26.5688 38.9432C26.5688 39.7527 25.9149 40.4155 25.0964 40.4155H18.1927C17.3611 40.4155 16.7203 39.7373 16.7203 38.9432V36.1816C16.7203 35.3823 17.3676 34.7093 18.1927 34.7093H23.8072V34.801C23.8072 35.7362 24.2871 37.8802 26.5687 38.6431V38.9432H26.5688ZM51.4219 46.8623C51.4219 47.4236 51.1099 47.9283 50.6086 48.1791L49.3729 48.7967C48.9362 49.015 48.6604 49.4614 48.6604 49.9496V51.422H40.1927V49.9496C40.1927 49.6077 40.0569 49.2799 39.8151 49.0382L35.1019 44.325C34.8232 44.0459 34.6697 43.6757 34.6697 43.2828V41.6639C34.6697 40.0915 35.949 38.8122 37.5215 38.8122H37.6146V41.6653C37.678 43.3738 40.1299 43.3726 40.1927 41.6653V32.0001C40.2619 30.0558 43.0629 30.0426 43.1375 32.0001V37.523C43.1375 38.0779 43.4926 38.5705 44.019 38.7459L50.4148 40.8776C51.0172 41.0786 51.422 41.6401 51.422 42.2748V46.8623H51.4219ZM51.4219 34.7615C51.4219 35.5768 50.7621 36.2339 49.9494 36.2339H45.7156V32.0001C45.5125 26.6189 37.8055 26.6471 37.6146 32.0001V36.234H37.5215C37.4624 36.234 37.4038 36.2366 37.3452 36.2385L27.8625 36.2658H27.8584C27.0576 36.2658 26.3854 35.6183 26.3854 34.7934V26.4772C26.3854 25.6654 27.0459 25.0049 27.8577 25.0049H49.9493C50.7613 25.0049 51.4218 25.6613 51.4218 26.4772V34.7615H51.4219Z" fill="white"/>
<path opacity="0.5" d="M49.9495 10H45.8074C43.5469 10 41.7568 11.8352 41.7568 14.0505V15.4313C41.7568 17.6532 43.5529 19.4817 45.8074 19.4817H49.9495C52.1865 19.4817 54.0001 17.6721 54.0001 15.4313V14.0505C54.0001 11.8132 52.1904 10 49.9495 10ZM51.422 15.4313C51.422 16.2465 50.7622 16.9036 49.9495 16.9036H45.8074C44.9859 16.9036 44.335 16.2359 44.335 15.4313V14.0505C44.335 13.2481 44.9837 12.5781 45.8074 12.5781H49.9495C50.7615 12.5781 51.422 13.2345 51.422 14.0505V15.4313Z" fill="white"/>
<defs>
<linearGradient id="paint0_linear_201_574" x1="7.3744" y1="7.3744" x2="58.5904" y2="58.5904" gradientUnits="userSpaceOnUse">
<stop stop-color="#9B8DFF"/>
<stop offset="0.252" stop-color="#7D79FD"/>
<stop offset="0.555" stop-color="#5F65FB"/>
<stop offset="0.815" stop-color="#4D58F9"/>
<stop offset="1" stop-color="#4654F9"/>
</linearGradient>
</defs>
</svg>
