<svg width="64" height="64" viewBox="0 0 64 64" fill="none" xmlns="http://www.w3.org/2000/svg">
<rect width="64" height="64" rx="8" fill="url(#paint0_linear_201_518)"/>
<path opacity="0.5" d="M51.212 15.7754C48.8005 14.947 46.8688 13.0043 46.0441 10.5785C45.5197 9.03601 44.0757 8 42.4504 8H21.5105C19.8856 8 18.4413 9.03601 17.9169 10.5785C17.0922 13.0043 15.1604 14.947 12.7489 15.7754C11.2145 16.3027 10.1836 17.7511 10.1836 19.3796V24.6769C10.1836 31.5895 12.2549 38.2454 16.1737 43.9253C19.7593 49.1222 24.7002 53.189 30.4629 55.6865C30.9452 55.8956 31.4626 56 31.9805 56C32.4979 56 33.0154 55.8956 33.4977 55.6865C39.2604 53.1893 44.2013 49.1222 47.7869 43.9253C51.7057 38.2454 53.7773 31.5891 53.7773 24.6769V19.3796C53.7773 17.7511 52.7465 16.3027 51.212 15.7754ZM50.9648 24.6769C50.9648 31.016 49.0653 37.1196 45.4717 42.3282C42.1857 47.0912 37.6582 50.8181 32.3793 53.1058C32.1262 53.2157 31.8351 53.2161 31.5813 53.1058C26.302 50.8181 21.7749 47.0912 18.4889 42.3282C14.8956 37.12 12.9961 31.0164 12.9961 24.6769V19.3796C12.9961 18.9519 13.2642 18.5725 13.663 18.4355C16.8911 17.3263 19.4769 14.7277 20.5796 11.4838C20.7162 11.0824 21.0901 10.8125 21.5105 10.8125H42.4504C42.8705 10.8125 43.2448 11.0824 43.3813 11.4838C44.484 14.7277 47.0698 17.3263 50.298 18.4355C50.6968 18.5725 50.9648 18.9519 50.9648 19.3796V24.6769Z" fill="white"/>
<path d="M37.9563 26.2324H37.8607V22.2275C37.8607 18.9855 35.2229 16.3477 31.9808 16.3477C28.7387 16.3477 26.1009 18.9855 26.1009 22.2275V26.2324H26.0053C24.138 26.2324 22.619 27.7518 22.619 29.6191V37.7124C22.619 41.1899 25.4483 44.0197 28.9255 44.0197H35.0361C38.5136 44.0197 41.3426 41.1899 41.3426 37.7124V29.6191C41.3426 27.7518 39.8236 26.2324 37.9563 26.2324ZM28.9134 22.2275C28.9134 20.5364 30.2896 19.1602 31.9808 19.1602C33.672 19.1602 35.0482 20.5364 35.0482 22.2275V26.2328H28.9134V22.2275ZM38.5301 37.7124C38.5301 39.6394 36.9627 41.2068 35.0361 41.2068H28.9255C26.9989 41.2068 25.4315 39.6394 25.4315 37.7124V29.6191C25.4315 29.3027 25.6889 29.0453 26.0053 29.0453H37.9563C38.2727 29.0453 38.5301 29.3027 38.5301 29.6191V37.7124Z" fill="white"/>
<path d="M31.9805 32.3916C31.2037 32.3916 30.5742 33.0211 30.5742 33.7979V36.4547C30.5742 37.2314 31.2037 37.861 31.9805 37.861C32.7572 37.861 33.3867 37.2314 33.3867 36.4547V33.7979C33.3867 33.0211 32.7572 32.3916 31.9805 32.3916Z" fill="white"/>
<defs>
<linearGradient id="paint0_linear_201_518" x1="7.3744" y1="7.3744" x2="58.5904" y2="58.5904" gradientUnits="userSpaceOnUse">
<stop stop-color="#9B8DFF"/>
<stop offset="0.252" stop-color="#7D79FD"/>
<stop offset="0.555" stop-color="#5F65FB"/>
<stop offset="0.815" stop-color="#4D58F9"/>
<stop offset="1" stop-color="#4654F9"/>
</linearGradient>
</defs>
</svg>
