<svg width="64" height="64" viewBox="0 0 64 64" fill="none" xmlns="http://www.w3.org/2000/svg">
<rect width="64" height="64" rx="8" fill="url(#paint0_linear_201_641)"/>
<path opacity="0.5" d="M46.101 23.929C46.3253 24.348 46.762 24.6094 47.2372 24.6094C47.7125 24.6094 48.1491 24.348 48.3735 23.929L51.7752 17.5792C52.638 15.9686 52.5927 14.0711 51.6541 12.5035C50.7155 10.9359 49.0643 10 47.2372 10C45.4101 10 43.7589 10.9359 42.8203 12.5035C41.8817 14.0711 41.8365 15.9686 42.6993 17.5792L46.101 23.929ZM45.0322 13.8279C45.5008 13.0454 46.325 12.5781 47.2372 12.5781C48.1494 12.5781 48.9737 13.0454 49.4422 13.8279C49.9108 14.6105 49.9334 15.5578 49.5027 16.3618L47.2373 20.5905L44.9719 16.3618C44.541 15.5578 44.5636 14.6105 45.0322 13.8279Z" fill="white"/>
<path opacity="0.5" d="M15.4364 39.2381C14.867 37.4848 14.5782 35.6566 14.5782 33.8047C14.5782 24.0906 22.4812 16.1875 32.1954 16.1875C34.0473 16.1875 35.8754 16.4762 37.629 17.0456C38.3061 17.2654 39.0332 16.8948 39.2531 16.2177C39.473 15.5406 39.1023 14.8134 38.4253 14.5935C36.4141 13.9406 34.3181 13.6094 32.1953 13.6094C26.8009 13.6094 21.7295 15.71 17.9151 19.5245C14.1007 23.3389 12 28.4103 12 33.8047C12 35.9274 12.3312 38.0235 12.9842 40.0345C13.2042 40.7116 13.9313 41.0821 14.6084 40.8623C15.2856 40.6423 15.6563 39.9152 15.4364 39.2381Z" fill="white"/>
<path opacity="0.5" d="M49.7821 26.747C49.105 26.967 48.7344 27.6941 48.9544 28.3712C49.5238 30.1243 49.8126 31.9524 49.8126 33.8046C49.8126 43.5188 41.9096 51.4218 32.1954 51.4218C30.3433 51.4218 28.5153 51.1332 26.7619 50.5637C26.0849 50.3437 25.3576 50.7144 25.1377 51.3915C24.9178 52.0687 25.2884 52.7959 25.9655 53.0157C27.9764 53.6688 30.0725 54 32.1954 54C37.5898 54 42.6612 51.8993 46.4756 48.0849C50.29 44.2705 52.3907 39.199 52.3907 33.8046C52.3907 31.6816 52.0595 29.5855 51.4064 27.5749C51.1864 26.8977 50.4591 26.527 49.7821 26.747Z" fill="white"/>
<path d="M47.0781 34.0391C47.0781 25.7465 40.3316 19 32.0391 19C23.7465 19 17 25.7465 17 34.0391C17 42.3316 23.7465 49.0781 32.0391 49.0781C40.3316 49.0781 47.0781 42.3316 47.0781 34.0391ZM44.5 34.0391C44.5 35.1791 44.3453 36.2835 44.0572 37.3333H37.7831C37.8677 36.2647 37.9114 35.1611 37.9114 34.0391C37.9114 32.917 37.8677 31.8135 37.7831 30.7448H44.0572C44.3452 31.7946 44.5 32.899 44.5 34.0391ZM43.0267 28.1667H37.4892C37.253 26.6055 36.9213 25.1643 36.5028 23.9087C36.2806 23.242 36.0456 22.6634 35.8024 22.1594C38.917 23.1484 41.5048 25.3305 43.0267 28.1667ZM36.5028 44.1695C36.9213 42.9139 37.253 41.4727 37.4892 39.9114H43.0267C41.5047 42.7476 38.917 44.9297 35.8024 45.9186C36.0456 45.4147 36.2806 44.8361 36.5028 44.1695ZM30.0211 24.724C30.785 22.4322 31.6642 21.5781 32.039 21.5781C32.4137 21.5781 33.2931 22.4322 34.057 24.724C34.3966 25.7428 34.673 26.9049 34.8809 28.1667H29.1971C29.4049 26.9049 29.6815 25.7429 30.0211 24.724ZM19.578 34.0391C19.578 32.899 19.7327 31.7946 20.0209 30.7448H26.2949C26.2104 31.8135 26.1666 32.917 26.1666 34.0391C26.1666 35.1611 26.2104 36.2647 26.2949 37.3333H20.0209C19.7328 36.2835 19.578 35.1791 19.578 34.0391ZM21.0514 39.9114H26.5888C26.8251 41.4727 27.1567 42.9138 27.5752 44.1695C27.7974 44.8362 28.0325 45.4147 28.2756 45.9187C25.1611 44.9297 22.5732 42.7476 21.0514 39.9114ZM27.5752 23.9087C27.1567 25.1642 26.8251 26.6054 26.5888 28.1667H21.0514C22.5733 25.3305 25.1611 23.1484 28.2757 22.1595C28.0325 22.6634 27.7974 23.242 27.5752 23.9087ZM28.7447 34.0391C28.7447 32.911 28.7911 31.8064 28.8805 30.7448H35.1976C35.2871 31.8064 35.3334 32.911 35.3334 34.0391C35.3334 35.1672 35.2871 36.2717 35.1976 37.3333H28.8805C28.7911 36.2717 28.7447 35.1672 28.7447 34.0391ZM30.0211 43.3542C29.6815 42.3353 29.405 41.1733 29.1971 39.9114H34.8809C34.6731 41.1733 34.3967 42.3352 34.057 43.3542C33.2931 45.646 32.4138 46.5 32.039 46.5C31.6642 46.5 30.785 45.646 30.0211 43.3542Z" fill="white"/>
<defs>
<linearGradient id="paint0_linear_201_641" x1="7.3744" y1="7.3744" x2="58.5904" y2="58.5904" gradientUnits="userSpaceOnUse">
<stop stop-color="#9B8DFF"/>
<stop offset="0.252" stop-color="#7D79FD"/>
<stop offset="0.555" stop-color="#5F65FB"/>
<stop offset="0.815" stop-color="#4D58F9"/>
<stop offset="1" stop-color="#4654F9"/>
</linearGradient>
</defs>
</svg>
