<svg width="64" height="64" viewBox="0 0 64 64" fill="none" xmlns="http://www.w3.org/2000/svg">
<rect width="64" height="64" rx="8" fill="url(#paint0_linear_201_388)"/>
<path opacity="0.5" d="M52.3934 13H11.6066C10.7207 13 10 13.7207 10 14.6066V49.13C10 50.0159 10.7207 50.7366 11.6066 50.7366H52.3934C53.2793 50.7366 54 50.0159 54 49.13V14.6066C54 13.7207 53.2793 13 52.3934 13ZM51.4219 15.5781V17.5033L36.3506 17.5399C35.9481 17.5409 35.5641 17.6927 35.269 17.9676L33.1487 19.9465H12.5781V15.5781H51.4219ZM12.5781 48.1585V22.5243H33.5385C33.9427 22.5243 34.328 22.3726 34.6234 22.0966L36.7447 20.117L51.4222 20.0811V48.1585H12.5781Z" fill="white"/>
<path opacity="0.5" d="M18.352 18.0453C18.3597 18.0863 18.3701 18.1275 18.3829 18.1682C18.395 18.2074 18.4098 18.2481 18.4252 18.2867C18.4413 18.3253 18.4594 18.3639 18.4792 18.4008C18.4991 18.4377 18.5205 18.474 18.5437 18.5092C18.5669 18.5445 18.5927 18.5787 18.6192 18.6106C18.6461 18.6432 18.6743 18.6751 18.7045 18.7053C18.7337 18.7351 18.7653 18.7637 18.7982 18.7902C18.8307 18.8167 18.865 18.8419 18.9002 18.8651C18.9348 18.8882 18.9717 18.9104 19.0086 18.9302C19.0456 18.95 19.0842 18.9681 19.1228 18.9836C19.1614 19 19.201 19.0144 19.2416 19.0265C19.2819 19.0386 19.3232 19.049 19.3635 19.0574C19.4048 19.0661 19.4471 19.0722 19.489 19.0762C19.531 19.0806 19.5739 19.0823 19.6152 19.0823C19.6572 19.0823 19.7002 19.0806 19.7425 19.0762C19.7838 19.0722 19.8257 19.0661 19.867 19.0574C19.9083 19.049 19.9496 19.0386 19.9899 19.0265C20.0295 19.0144 20.0701 19 20.1084 18.9836C20.1473 18.9681 20.1859 18.95 20.2228 18.9302C20.2598 18.9104 20.296 18.8882 20.3313 18.8651C20.3662 18.8419 20.4008 18.8167 20.4326 18.7902C20.4662 18.7637 20.4971 18.7351 20.527 18.7053C20.5572 18.6751 20.5857 18.6432 20.6122 18.6106C20.6388 18.5787 20.6636 18.5445 20.6878 18.5092C20.7103 18.474 20.7324 18.4377 20.7522 18.4008C20.772 18.3639 20.7902 18.3253 20.8056 18.2867C20.8217 18.2481 20.8365 18.2074 20.8486 18.1682C20.8607 18.1275 20.8707 18.0863 20.8795 18.0453C20.8882 18.004 20.8939 17.9617 20.8983 17.9204C20.9026 17.8785 20.9043 17.8355 20.9043 17.7935C20.9043 17.7512 20.9026 17.7093 20.8983 17.667C20.8939 17.625 20.8882 17.5827 20.8795 17.5414C20.8707 17.5005 20.8603 17.4592 20.8486 17.4196C20.8365 17.3793 20.8217 17.3397 20.8056 17.3011C20.7902 17.2615 20.772 17.2235 20.7522 17.1866C20.7324 17.1497 20.7103 17.1127 20.6878 17.0785C20.6636 17.0433 20.6388 17.0087 20.6122 16.9761C20.5854 16.9436 20.5572 16.9117 20.527 16.8825C20.4971 16.8522 20.4662 16.824 20.4326 16.7975C20.4008 16.7707 20.3662 16.7448 20.3313 16.7217C20.296 16.6985 20.2598 16.677 20.2228 16.6572C20.1859 16.6374 20.1473 16.6196 20.1084 16.6032C20.0701 16.5877 20.0295 16.5729 19.9899 16.5612C19.9496 16.5481 19.9083 16.538 19.867 16.53C19.8257 16.5216 19.7838 16.5155 19.7425 16.5112C19.6582 16.5028 19.5733 16.5028 19.489 16.5112C19.4471 16.5155 19.4048 16.5216 19.3635 16.53C19.3232 16.538 19.2819 16.5481 19.2416 16.5612C19.201 16.5729 19.1614 16.5877 19.1228 16.6032C19.0842 16.6196 19.0456 16.6374 19.0086 16.6572C18.9717 16.677 18.9348 16.6985 18.9002 16.7217C18.865 16.7448 18.8307 16.7707 18.7982 16.7975C18.7653 16.824 18.7337 16.8522 18.7045 16.8825C18.6743 16.9117 18.6461 16.9436 18.6192 16.9761C18.5927 17.0087 18.5669 17.0433 18.5437 17.0785C18.5205 17.1127 18.4991 17.1497 18.4792 17.1866C18.4594 17.2235 18.4417 17.2615 18.4252 17.3011C18.4098 17.3397 18.395 17.3793 18.3829 17.4196C18.3701 17.4592 18.3597 17.5005 18.352 17.5414C18.3433 17.5827 18.3376 17.625 18.3332 17.667C18.3289 17.7093 18.3262 17.7512 18.3262 17.7935C18.3262 17.8355 18.3289 17.8785 18.3332 17.9204C18.3376 17.962 18.3436 18.004 18.352 18.0453Z" fill="white"/>
<path d="M14.6731 18.7902C14.706 18.8171 14.7402 18.8419 14.7755 18.8651C14.8097 18.8882 14.847 18.9107 14.8839 18.9305C14.9208 18.95 14.9594 18.9681 14.998 18.9836C15.0366 19 15.0762 19.0144 15.1165 19.0265C15.1571 19.0386 15.1974 19.049 15.2387 19.0574C15.28 19.0661 15.322 19.0722 15.3643 19.0765C15.4062 19.0806 15.4482 19.0826 15.4905 19.0826C15.5324 19.0826 15.5754 19.0806 15.6177 19.0765C15.659 19.0722 15.701 19.0661 15.7422 19.0574C15.7835 19.049 15.8248 19.0386 15.8651 19.0265C15.9047 19.0144 15.945 19 15.9836 18.9836C16.0222 18.9681 16.0612 18.95 16.0981 18.9305C16.135 18.9107 16.1713 18.8882 16.2065 18.8651C16.2414 18.8419 16.276 18.8171 16.3079 18.7902C16.3405 18.7637 16.3723 18.7351 16.4022 18.7053C16.4324 18.6751 16.4606 18.6435 16.4875 18.6106C16.514 18.579 16.5388 18.5445 16.562 18.5092C16.5852 18.474 16.6077 18.4381 16.6275 18.4011C16.6473 18.3642 16.6651 18.3253 16.6808 18.2867C16.697 18.2481 16.7117 18.2078 16.7238 18.1682C16.7356 18.1279 16.746 18.0866 16.7547 18.0453C16.7631 18.004 16.7691 17.962 16.7735 17.9208C16.7779 17.8785 16.7795 17.8355 16.7795 17.7935C16.7795 17.7512 16.7779 17.7093 16.7735 17.667C16.7691 17.625 16.7631 17.583 16.7547 17.5418C16.746 17.5005 16.7356 17.4602 16.7238 17.4196C16.7117 17.3793 16.697 17.3397 16.6808 17.3011C16.6651 17.2615 16.6473 17.2239 16.6275 17.1869C16.6077 17.1497 16.5852 17.1127 16.562 17.0785C16.5388 17.0433 16.514 17.009 16.4875 16.9761C16.4606 16.9436 16.4324 16.9117 16.4022 16.8825C16.3723 16.8526 16.3405 16.824 16.3079 16.7965C16.276 16.771 16.2414 16.7452 16.2065 16.722C16.1713 16.6985 16.135 16.677 16.0981 16.6575C16.0612 16.6377 16.0222 16.6196 15.9836 16.6032C15.945 16.5877 15.9047 16.5733 15.8651 16.5612C15.8248 16.5484 15.7835 16.538 15.7422 16.5303C15.701 16.5216 15.659 16.5155 15.6177 16.5112C15.5334 16.5028 15.4482 16.5028 15.3643 16.5112C15.322 16.5155 15.28 16.5216 15.2387 16.5303C15.1974 16.538 15.1571 16.5484 15.1165 16.5612C15.0762 16.5733 15.0366 16.5877 14.998 16.6032C14.9594 16.6196 14.9208 16.6377 14.8839 16.6575C14.847 16.677 14.81 16.6985 14.7755 16.722C14.7402 16.7452 14.706 16.771 14.6731 16.7965C14.6405 16.824 14.6086 16.8526 14.5794 16.8825C14.5495 16.9117 14.521 16.9436 14.4945 16.9761C14.468 17.009 14.4421 17.0433 14.4189 17.0785C14.3958 17.1127 14.3743 17.1497 14.3545 17.1869C14.3347 17.2239 14.3166 17.2615 14.3001 17.3011C14.2847 17.3397 14.2702 17.3793 14.2581 17.4196C14.2454 17.4602 14.235 17.5005 14.2273 17.5418C14.2185 17.583 14.2128 17.625 14.2085 17.667C14.2041 17.7093 14.2014 17.7512 14.2014 17.7935C14.2014 18.1329 14.3391 18.4646 14.5794 18.7053C14.6086 18.7351 14.6405 18.7637 14.6731 18.7902Z" fill="white"/>
<path opacity="0.5" d="M22.563 18.0453C22.5707 18.0863 22.5807 18.1275 22.5938 18.1682C22.6059 18.2074 22.6204 18.2481 22.6358 18.2867C22.6523 18.3253 22.67 18.3639 22.6898 18.4008C22.7097 18.4377 22.7311 18.474 22.7543 18.5092C22.7778 18.5445 22.8033 18.5787 22.8302 18.6106C22.8567 18.6432 22.8852 18.6751 22.9151 18.7053C22.9443 18.7351 22.9762 18.7637 23.0088 18.7902C23.0417 18.8167 23.0759 18.8419 23.1111 18.8651C23.1454 18.8882 23.1823 18.9104 23.2192 18.9302C23.2565 18.95 23.2948 18.9681 23.3337 18.9836C23.3723 19 23.4119 19.0144 23.4522 19.0265C23.4928 19.0386 23.5338 19.049 23.5741 19.0574C23.6154 19.0661 23.6577 19.0722 23.6996 19.0762C23.7419 19.0806 23.7849 19.0823 23.8262 19.0823C23.8681 19.0823 23.9111 19.0806 23.9531 19.0762C23.9954 19.0722 24.0367 19.0661 24.0786 19.0574C24.1192 19.049 24.1602 19.0386 24.2008 19.0265C24.2411 19.0144 24.2807 19 24.3193 18.9836C24.3579 18.9681 24.3965 18.95 24.4334 18.9302C24.4707 18.9104 24.5073 18.8882 24.5419 18.8651C24.5771 18.8419 24.6114 18.8167 24.6443 18.7902C24.6768 18.7637 24.7087 18.7351 24.7379 18.7053C24.7678 18.6751 24.7963 18.6432 24.8228 18.6106C24.8497 18.5787 24.8745 18.5445 24.8984 18.5092C24.9209 18.474 24.9434 18.4377 24.9628 18.4008C24.9826 18.3639 25.0008 18.3253 25.0162 18.2867C25.0327 18.2481 25.0471 18.2074 25.0592 18.1682C25.0713 18.1275 25.0813 18.0863 25.0901 18.0453C25.0988 18.004 25.1048 17.9617 25.1089 17.9204C25.1132 17.8785 25.1149 17.8355 25.1149 17.7935C25.1149 17.7512 25.1132 17.7093 25.1089 17.667C25.1048 17.625 25.0988 17.5827 25.0901 17.5414C25.0813 17.5005 25.0713 17.4598 25.0592 17.4196C25.0471 17.3793 25.0327 17.3397 25.0162 17.3011C25.0008 17.2625 24.9826 17.2235 24.9628 17.1866C24.9434 17.1497 24.9209 17.1127 24.8984 17.0785C24.8745 17.0433 24.8497 17.0087 24.8228 16.9761C24.7963 16.9436 24.7678 16.9117 24.7379 16.8825C24.7087 16.8522 24.6768 16.824 24.6443 16.7975C24.6114 16.7707 24.5771 16.7448 24.5419 16.7217C24.5076 16.6985 24.4707 16.677 24.4334 16.6572C24.3965 16.6374 24.3579 16.6196 24.3193 16.6032C24.2807 16.5877 24.2411 16.5729 24.2008 16.5612C24.1602 16.5491 24.1192 16.538 24.0786 16.53C24.0367 16.5216 23.9954 16.5155 23.9531 16.5112C23.8691 16.5028 23.7839 16.5028 23.6996 16.5112C23.6577 16.5155 23.6157 16.5216 23.5741 16.53C23.5338 16.538 23.4928 16.5491 23.4522 16.5612C23.4119 16.5729 23.3723 16.5877 23.3337 16.6032C23.2948 16.6196 23.2565 16.6374 23.2192 16.6572C23.1823 16.677 23.1454 16.6985 23.1111 16.7217C23.0759 16.7448 23.0413 16.7707 23.0088 16.7975C22.9762 16.824 22.9443 16.8522 22.9151 16.8825C22.8849 16.9117 22.8567 16.9436 22.8302 16.9761C22.8033 17.0087 22.7778 17.0433 22.7543 17.0785C22.7311 17.1127 22.7097 17.1497 22.6898 17.1866C22.6704 17.2235 22.6523 17.2625 22.6358 17.3011C22.6204 17.3397 22.6056 17.3793 22.5938 17.4196C22.5807 17.4598 22.5707 17.5005 22.563 17.5414C22.5542 17.5827 22.5482 17.625 22.5438 17.667C22.5395 17.7093 22.5371 17.7512 22.5371 17.7935C22.5371 17.8355 22.5395 17.8785 22.5438 17.9204C22.5482 17.962 22.5542 18.004 22.563 18.0453Z" fill="white"/>
<path d="M26.6266 29.1789C26.1381 28.6613 25.3224 28.6371 24.8044 29.1256L19.3709 34.2486C19.1023 34.5024 18.9482 34.8602 18.9482 35.2298C18.9486 35.5994 19.103 35.9569 19.3719 36.2104L24.8044 41.3327C25.0535 41.5674 25.3711 41.6839 25.6883 41.6839C26.031 41.6839 26.3728 41.5479 26.6266 41.279C27.115 40.7614 27.0908 39.9453 26.5728 39.4569L22.089 35.2291L26.5728 31.0014C27.0912 30.513 27.115 29.6969 26.6266 29.1789Z" fill="white"/>
<path opacity="0.5" d="M34.7707 28.8858C34.1201 28.5961 33.3584 28.8885 33.0687 29.539L28.4681 39.8703C28.1784 40.5209 28.4707 41.2826 29.1213 41.5723C29.2915 41.6482 29.4698 41.6841 29.645 41.6841C30.1385 41.6841 30.6095 41.3991 30.8233 40.9191L35.424 30.5878C35.7137 29.9372 35.4209 29.1755 34.7707 28.8858Z" fill="white"/>
<path d="M39.1955 29.1256C38.6775 28.6371 37.8618 28.6613 37.3733 29.1789C36.8849 29.6969 36.9091 30.513 37.427 31.0011L41.9109 35.2291L37.427 39.4569C36.9091 39.9453 36.8849 40.761 37.3733 41.279C37.6271 41.5479 37.9688 41.6839 38.3116 41.6839C38.6285 41.6839 38.9464 41.5674 39.1955 41.3327L44.628 36.2104C44.8969 35.9569 45.0513 35.5994 45.0516 35.2298C45.0516 34.8599 44.8976 34.5024 44.628 34.2479L39.1955 29.1256Z" fill="white"/>
<defs>
<linearGradient id="paint0_linear_201_388" x1="7.3744" y1="7.3744" x2="58.5904" y2="58.5904" gradientUnits="userSpaceOnUse">
<stop stop-color="#9B8DFF"/>
<stop offset="0.252" stop-color="#7D79FD"/>
<stop offset="0.555" stop-color="#5F65FB"/>
<stop offset="0.815" stop-color="#4D58F9"/>
<stop offset="1" stop-color="#4654F9"/>
</linearGradient>
</defs>
</svg>
