<svg width="264" height="264" viewBox="0 0 264 264" fill="none" xmlns="http://www.w3.org/2000/svg">
<path d="M13.7952 134.821C13.7952 135.386 13.7976 135.953 13.8022 136.522C13.9347 152.805 15.9372 168.597 19.4405 180.996C23.2625 194.522 28.5922 203.232 34.8535 206.185C39.7256 208.482 45.1628 207.24 51.0143 202.493C58.5793 196.394 66.1732 189.731 73.5869 182.689C87.6842 169.304 101.247 154.516 115.049 137.483C116.191 136.074 117.321 134.665 118.438 133.258C117.952 132.656 117.464 132.055 116.973 131.453C103.135 114.487 89.3549 100.116 74.8438 87.5147C67.6392 81.255 60.211 75.418 52.7652 70.1685C45.8201 65.2509 39.5352 64.2017 34.0841 67.0508C27.6189 70.428 22.2907 79.3087 18.6752 92.7345C15.5174 104.462 13.7952 119.347 13.7952 134.821ZM226.197 222.714C249.076 199.836 261.675 169.419 261.675 137.064C261.675 104.709 249.076 74.291 226.197 51.4118C218.592 43.8064 211.39 40.3587 204.18 40.8666C190.938 41.8008 178.153 55.5472 160.546 78.9751C156.377 84.5211 152.043 90.4971 147.455 96.8217C139.342 108.006 130.276 120.509 120.185 133.253C132.912 149.107 143.872 164.964 153.602 179.041C156.488 183.217 159.215 187.161 161.893 190.974C177.942 213.813 191.334 231.379 205.386 232.597C212.154 233.183 218.961 229.95 226.197 222.714ZM263.04 137.064C263.04 153.044 259.996 168.616 253.994 183.345C247.829 198.47 238.802 212.041 227.163 223.68C219.624 231.218 212.462 234.581 205.268 233.956C190.628 232.688 177.032 214.892 160.777 191.76C158.093 187.942 155.367 183.995 152.479 179.817C142.812 165.83 131.93 150.087 119.315 134.35C118.258 135.679 117.189 137.01 116.109 138.343C102.269 155.422 88.6678 170.251 74.5269 183.678C67.0868 190.746 59.4648 197.434 51.8727 203.555C45.5808 208.658 39.6585 209.959 34.2713 207.42C27.6422 204.294 22.0595 195.286 18.1267 181.367C14.5913 168.855 12.5707 152.933 12.437 136.534C12.3063 120.333 14.0523 104.651 17.3571 92.3804C21.0743 78.5765 26.6398 69.3993 33.452 65.8403C39.394 62.7355 46.1569 63.8162 53.553 69.0527C61.0351 74.3299 68.5 80.1947 75.7391 86.4841C90.3097 99.1369 104.143 113.564 118.031 130.589C118.458 131.114 118.884 131.638 119.307 132.163C129.303 119.525 138.299 107.122 146.351 96.0209C150.942 89.6908 155.278 83.7111 159.454 78.1539C177.299 54.4109 190.322 40.4754 204.083 39.5042C211.711 38.9666 219.261 42.5459 227.163 50.4479C238.802 62.0868 247.829 75.6571 253.994 90.7807C259.996 105.51 263.04 121.082 263.04 137.064Z" fill="white"/>
<path d="M10.5676 134.554C10.5676 134.823 10.5689 135.092 10.5716 135.362C10.6584 143.711 12.0512 151.896 14.4933 158.41C17.1505 165.498 20.8826 170.26 25.286 172.184C30.8289 174.607 37.2448 172.564 44.3553 166.117C51.5862 159.559 58.5006 153.118 64.9065 146.97C69.4219 142.638 74.0285 138.15 78.7616 133.47C74.3894 129.355 70.0942 125.418 65.8467 121.627C59.3095 115.782 52.5894 110.058 45.8723 104.614C37.6728 97.9673 30.4876 96.06 24.5166 98.946C20.0937 101.081 16.4422 105.897 13.9571 112.872C11.7643 119.024 10.5676 126.697 10.5676 134.554ZM225.383 223.003C248.683 199.701 261.516 168.722 261.516 135.77C261.516 102.816 248.683 71.8369 225.383 48.5369C214.165 37.3188 203.253 33.3595 191.038 36.0769C180.57 38.4051 168.868 45.7065 153.092 59.7532C142.343 69.3234 130.852 81.3793 118.685 94.1415C114.635 98.3881 110.448 102.781 106.144 107.235C97.0256 116.672 88.4671 125.351 80.2899 133.451C88.9867 141.661 97.9873 150.566 107.504 160.371C113.887 166.948 119.96 173.404 125.832 179.647C135.793 190.24 145.203 200.244 154.106 208.651C170.142 223.791 181.301 231.469 191.418 234.319C203.472 237.717 214.264 234.121 225.383 223.003ZM262.578 135.77C262.578 152.149 259.434 168.092 253.234 183.156C246.969 198.378 237.851 212.037 226.134 223.754C220.264 229.624 214.53 233.387 208.606 235.257C202.964 237.039 197.247 237.066 191.129 235.343C180.837 232.442 169.547 224.69 153.378 209.422C144.451 200.995 135.031 190.978 125.058 180.375C119.189 174.134 113.119 167.68 106.742 161.111C97.2273 151.307 88.228 142.404 79.5347 134.198C74.7882 138.893 70.1699 143.392 65.6417 147.735C59.2287 153.891 52.3067 160.34 45.0686 166.903C41.2599 170.357 37.5636 172.616 34.082 173.617C30.8126 174.557 27.7102 174.403 24.861 173.157C14.4805 168.622 9.67152 150.912 9.51007 135.373C9.42443 127.114 10.6478 118.995 12.9571 112.515C15.5378 105.272 19.3752 100.249 24.0547 97.9896C27.0948 96.5197 30.4735 96.2083 34.0972 97.0628C37.9742 97.9766 42.1608 100.24 46.5409 103.79C53.2712 109.245 60.0045 114.98 66.5538 120.835C70.8172 124.639 75.1283 128.591 79.5167 132.723C87.6969 124.619 96.2573 115.938 105.381 106.498C109.682 102.045 113.868 97.6559 117.916 93.4093C130.098 80.6305 141.605 68.5597 152.386 58.9598C168.305 44.7871 180.153 37.4097 190.808 35.0408C197.003 33.6617 202.797 33.9619 208.521 35.9546C214.49 38.0325 220.251 41.9028 226.134 47.7862C237.851 59.5029 246.969 73.1604 253.234 88.3823C259.434 103.448 262.578 119.391 262.578 135.77Z" fill="white"/>
<path d="M7.33906 134.029C7.33906 134.085 7.3398 134.142 7.3411 134.198C7.41692 137.49 9.48611 140.408 12.6124 141.633C15.3717 142.714 18.8326 142.471 22.6208 140.927C25.9355 139.575 29.4707 137.269 33.1759 134.046C21.3044 124.821 14.4694 126.114 11.875 127.267C9.10426 128.502 7.33906 131.141 7.33906 134.029ZM224.57 223.29C248.292 199.568 261.357 168.026 261.357 134.476C261.357 100.926 248.292 69.3826 224.57 45.66C202.905 23.9949 179.304 22.4471 145.659 40.4828C128.435 49.7157 110.987 63.6734 96.1898 76.1093C83.0109 87.1866 69.7433 99.1906 56.7556 111.791C49.8931 118.455 43.8405 124.498 38.2517 130.261C36.9371 131.616 35.639 132.867 34.3591 134.013C36.041 135.356 37.7606 136.86 39.5149 138.519C45.0832 143.781 50.9222 149.233 57.366 155.183C71.4909 168.191 84.8221 179.964 96.9887 190.17C112.797 203.431 129.715 216.993 146.334 226.375C180.003 245.382 203.401 244.459 224.57 223.29ZM262.117 134.476C262.117 151.253 258.871 167.567 252.474 182.965C246.109 198.283 236.902 212.031 225.105 223.828C213.676 235.255 201.564 240.805 188.074 240.794C175.955 240.785 162.574 236.412 145.961 227.035C129.289 217.624 112.337 204.035 96.5014 190.75C84.3257 180.537 70.9858 168.757 56.8518 155.739C50.4054 149.789 44.5643 144.335 38.9938 139.069C37.1612 137.336 35.4251 135.831 33.7824 134.522C29.973 137.851 26.3297 140.233 22.907 141.629C18.9351 143.247 15.2798 143.492 12.3359 142.339C8.92409 141.003 6.66583 137.814 6.58297 134.217C6.5066 130.96 8.46106 127.957 11.5668 126.576C14.5159 125.264 18.3245 125.397 22.581 126.965C26.0573 128.244 29.7986 130.446 33.7551 133.536C35.0529 132.38 36.3712 131.11 37.7072 129.733C43.3013 123.964 49.3593 117.918 56.2273 111.247C69.2282 98.6345 82.5094 86.6175 95.7019 75.5292C110.528 63.0673 128.016 49.0799 145.302 39.8137C153.343 35.504 160.575 32.4066 167.412 30.3454C174.724 28.1414 181.408 27.172 187.849 27.3815C201.42 27.8208 213.605 33.6245 225.105 45.1243C236.902 56.9189 246.109 70.6671 252.474 85.9854C258.871 101.383 262.117 117.697 262.117 134.476Z" fill="white"/>
<path d="M4.11022 133.183C4.11022 141.839 11.187 149.656 23.9812 163.786C26.5236 166.594 29.4054 169.777 32.4724 173.234C37.3749 178.759 42.6579 184.242 48.1748 189.527C60.1666 200.993 73.0579 211.242 86.4907 219.989C104.922 231.991 121.971 239.895 138.61 244.155C173.206 253.008 201.056 246.277 223.754 223.58C247.901 199.435 261.199 167.33 261.199 133.183C261.199 99.0334 247.901 66.9306 223.754 42.7835C201.084 20.1156 172.325 12.8402 138.274 21.1611C121.655 25.2224 104.639 33.0094 86.2533 44.9634C72.58 53.8533 59.6653 64.2447 47.8682 75.8484C41.9787 81.6465 36.4453 87.6281 31.4214 93.6301C27.696 98.0788 24.2996 101.99 21.3031 105.441C10.2613 118.159 4.17898 125.162 4.11077 133.051C4.1104 133.094 4.11022 133.138 4.11022 133.183ZM261.653 133.183C261.653 150.36 258.309 167.044 251.716 182.772C245.252 198.187 235.953 212.024 224.077 223.902C218.251 229.726 211.972 234.57 205.414 238.296C198.971 241.955 192.065 244.648 184.887 246.298C177.851 247.914 170.34 248.578 162.561 248.272C154.955 247.972 146.859 246.735 138.497 244.594C121.809 240.323 104.716 232.399 86.2425 220.371C72.7862 211.607 59.8724 201.342 47.86 189.855C42.3342 184.561 37.0425 179.071 32.1321 173.536C29.0664 170.081 26.1857 166.9 23.6438 164.092C10.7747 149.878 3.65515 142.013 3.65515 133.183C3.65515 133.138 3.65534 133.092 3.65571 133.045C3.7254 124.991 9.84679 117.942 20.9594 105.143C23.9549 101.693 27.3498 97.7841 31.0726 93.3372C36.1057 87.326 41.6491 81.3332 47.549 75.524C59.3678 63.8999 72.3064 53.49 86.0052 44.5815C104.435 32.5979 121.496 24.7942 138.165 20.7199C155.035 16.5975 170.716 16.2453 184.772 19.6745C191.972 21.4299 198.904 24.2159 205.383 27.9546C211.952 31.7471 218.241 36.6277 224.077 42.4629C235.953 54.339 245.252 68.1781 251.716 83.5909C258.309 99.3188 261.653 116.003 261.653 133.183Z" fill="white"/>
<path d="M0.88014 131.889C0.88014 166.633 14.4108 199.299 38.9798 223.869C63.5483 248.437 96.2143 261.968 130.96 261.968C165.706 261.968 198.371 248.437 222.94 223.869C247.508 199.299 261.04 166.633 261.04 131.889C261.04 97.1427 247.508 64.4764 222.94 39.9085C198.371 15.3388 165.706 1.80927 130.96 1.80927C96.2143 1.80927 63.5485 15.3388 38.9798 39.9085C14.4108 64.4764 0.88014 97.1427 0.88014 131.889ZM261.192 131.889C261.192 149.468 257.748 166.524 250.956 182.58C244.398 198.089 235.007 212.015 223.048 223.976C211.086 235.936 197.16 245.326 181.651 251.884C165.597 258.676 148.542 262.12 130.96 262.12C113.379 262.12 96.3234 258.676 80.2678 251.884C64.76 245.326 50.8325 235.936 38.8724 223.976C26.9121 212.015 17.5221 198.089 10.9627 182.58C4.17179 166.524 0.728516 149.468 0.728516 131.889C0.728516 114.307 4.17179 97.252 10.9627 81.196C17.5221 65.6886 26.9121 51.7606 38.8724 39.801C50.8325 27.8396 64.76 18.451 80.2678 11.8911C96.3234 5.09946 113.379 1.65729 130.96 1.65729C148.542 1.65729 165.597 5.09946 181.651 11.8911C197.16 18.451 211.086 27.8396 223.048 39.801C235.007 51.7606 244.398 65.6886 250.956 81.196C257.748 97.252 261.192 114.307 261.192 131.889Z" fill="white" stroke="white"/>
</svg>
