<svg width="264" height="264" viewBox="0 0 264 264" fill="none" xmlns="http://www.w3.org/2000/svg">
<path d="M131.881 51.6107C167.747 51.6107 200.216 89.4032 223.72 118.228C247.224 147.054 261.762 166.911 261.762 131.047C261.762 95.1807 247.224 62.7115 223.72 39.206C200.216 15.7024 167.747 1.16619 131.881 1.16619C96.0153 1.16619 63.5451 15.7024 40.0413 39.206C16.5375 62.7115 2 95.1807 2 131.047C2 166.911 16.5375 147.054 40.0413 118.228C63.5451 89.4032 96.0153 51.6107 131.881 51.6107Z" stroke="white" stroke-miterlimit="10"/>
<path d="M39.7788 39.6681C28.3081 50.9301 16.9762 66.5815 11.0517 86.3494C5.30202 105.533 5.07916 124.179 6.21396 141.429C8.35685 174 20.702 156.653 42.9919 131.945C65.4658 107.031 96.6649 74.4868 130.331 74.7762C138.671 74.8512 146.816 76.948 154.696 80.4419C179.024 91.1216 201.031 114.537 217.983 133.551C240.28 158.563 250.714 175.658 254.951 143.394C257.405 124.717 258.773 105.068 253.248 87.6441C247.429 69.2971 235.833 51.1681 220.843 37.1356C197.35 15.1445 166.2 0.954419 131.317 1.21079C96.4342 1.46533 64.1776 15.7104 39.7788 39.6681Z" stroke="white" stroke-miterlimit="10"/>
<path d="M39.5164 40.1271C28.3491 50.8946 15.1576 68.1538 9.92035 92.15C4.93872 114.974 8.11111 135.121 10.428 151.811C14.4781 180.988 24.9271 166.226 45.9425 145.658C67.4534 124.606 97.3147 97.3617 128.782 97.9385C136.607 98.0905 144.245 100.008 151.662 103.068C174.784 112.608 196.014 132.539 212.244 148.874C233.297 170.063 246.215 184.928 248.141 155.739C256.79 136.425 259.174 113.008 254.312 93.2835C249.249 72.741 235.874 50.9605 217.964 35.0638C194.688 14.4004 164.652 0.743154 130.753 1.25406C96.8532 1.76314 64.8216 15.7261 39.5164 40.1271Z" stroke="white" stroke-miterlimit="10"/>
<path d="M39.2542 40.5866C28.3979 50.867 13.3123 69.7212 8.78888 97.9512C4.54962 124.409 11.0671 145.967 14.642 162.192C20.3063 187.9 29.2477 175.787 48.8932 159.374C69.5425 142.124 97.9644 120.237 127.233 121.101C134.545 121.328 141.682 123.052 148.626 125.694C170.571 134.044 190.956 150.525 206.507 164.197C226.256 181.559 238.441 193.938 241.331 168.085C254.303 147.789 259.562 120.953 255.376 98.9217C251.056 76.1909 235.969 50.7022 215.088 32.9907C192.144 13.5322 163.107 0.532437 130.189 1.29788C97.2722 2.06333 65.4783 15.7535 39.2542 40.5866Z" stroke="white" stroke-miterlimit="10"/>
<path d="M38.9918 41.049C28.4533 50.8478 11.449 71.286 7.65734 103.755C4.14379 133.842 13.9078 156.745 18.8559 172.576C25.7961 194.781 33.7159 185.361 51.844 173.09C71.7852 159.593 98.6141 143.113 125.683 144.265C132.483 144.569 139.12 146.095 145.591 148.323C166.361 155.474 185.834 168.503 200.767 179.52C219.133 193.069 230.669 202.947 234.52 180.43C251.816 159.157 259.943 128.9 256.44 104.563C252.854 79.6436 236.123 50.3845 212.211 30.9205C189.679 12.5791 161.559 0.322785 129.626 1.34277C97.6912 2.36276 66.1481 15.7965 38.9918 41.049Z" stroke="white" stroke-miterlimit="10"/>
<path d="M38.7294 41.5083C28.5149 50.8328 9.57299 72.8513 6.52585 109.556C3.72684 143.274 16.582 167.494 23.0699 182.957C30.9277 201.686 38.3963 195.021 54.7946 186.806C74.2515 177.058 99.2638 165.989 124.134 167.428C130.421 167.807 136.56 169.133 142.555 170.949C162.158 176.892 180.626 186.491 195.028 194.843C211.894 204.622 222.896 211.954 227.71 192.776C249.329 170.521 260.317 136.847 257.504 110.203C254.644 83.0951 236.331 49.9941 209.332 28.8491C187.264 11.5643 160.014 0.111831 129.062 1.38636C98.1102 2.66271 66.8328 15.853 38.7294 41.5083Z" stroke="white" stroke-miterlimit="10"/>
<path d="M261.762 132.763C261.762 96.8968 237.809 47.4796 197.821 20.5608C177.828 7.10139 153.826 -0.732527 126.806 1.56198C99.7861 3.85833 69.7474 16.2849 37.6801 43.3484C28.8106 50.8326 2 79.1249 2 132.763C2 181.019 24.3289 212.972 39.9257 224.487C73.0081 248.909 103.414 259.873 130.414 261.457C157.413 263.041 181.009 255.247 200.467 242.16C239.386 215.982 261.762 168.629 261.762 132.763Z" stroke="white" stroke-width="1.33333" stroke-miterlimit="10"/>
</svg>
