<svg width="264" height="264" viewBox="0 0 264 264" fill="none" xmlns="http://www.w3.org/2000/svg">
<path d="M134.491 17.5338C71.3735 17.5338 20.0242 68.8838 20.0242 132C20.0242 195.117 71.3735 246.467 134.491 246.467C197.607 246.467 248.957 195.117 248.957 132C248.957 68.8838 197.607 17.5338 134.491 17.5338ZM134.491 247.961C118.836 247.961 103.65 244.895 89.3531 238.848C75.5445 233.007 63.1433 224.646 52.4939 213.996C41.8445 203.347 33.4834 190.946 27.6429 177.138C21.5959 162.84 18.5298 147.655 18.5298 132C18.5298 116.345 21.5959 101.16 27.6429 86.8622C33.4834 73.0545 41.8445 60.653 52.4939 50.0028C63.1433 39.3541 75.5445 30.9933 89.3531 25.1519C103.65 19.1059 118.836 16.0394 134.491 16.0394C150.145 16.0394 165.331 19.1059 179.629 25.1519C193.436 30.9933 205.838 39.3541 216.486 50.0028C227.137 60.653 235.497 73.0545 241.339 86.8622C247.385 101.16 250.451 116.345 250.451 132C250.451 147.655 247.385 162.84 241.339 177.138C235.497 190.946 227.137 203.347 216.486 213.996C205.838 224.646 193.436 233.007 179.629 238.848C165.331 244.895 150.145 247.961 134.491 247.961Z" fill="white"/>
<path d="M126.413 24.122C122.968 24.122 119.677 24.3805 116.558 24.905C101.818 27.3827 89.9477 36.017 80.2701 51.3011C71.7099 64.8218 65.9809 81.5016 60.4405 97.6315C56.1109 110.236 52.0214 122.143 46.8807 131.623C44.112 136.729 41.2716 140.703 38.1968 143.772C34.744 147.218 31.0661 149.467 26.9534 150.648C20.4744 152.508 17.9061 156.612 19.3199 162.845C22.3339 176.134 43.2226 197.244 70.1171 214.183C96.5376 230.822 122.344 239.872 142.703 239.872C146.134 239.873 149.409 239.616 152.508 239.095C185.688 233.518 197.924 198.015 208.72 166.692C213.024 154.206 217.089 142.412 222.208 132.896C228.015 122.104 234.314 115.877 242.028 113.298C248.044 111.288 250.3 107.091 248.736 100.82C247.077 94.1692 241.306 85.6992 232.049 76.3253C222.975 67.1381 210.951 57.6281 198.197 49.5467C172.2 33.0776 146.683 24.122 126.413 24.122ZM142.677 241.075C133.467 241.075 123.16 239.235 111.896 235.571C98.2879 231.146 83.6208 224.101 69.4801 215.194C56.4533 206.99 44.2184 197.374 35.0291 188.115C25.529 178.546 19.6937 169.898 18.1538 163.109C16.5966 156.243 19.5255 151.537 26.6236 149.499C34.0603 147.365 40.1632 141.502 45.8297 131.054C50.9232 121.661 54.9969 109.8 59.3097 97.243C64.8727 81.0474 70.6249 64.3003 79.2601 50.663C89.1297 35.074 101.265 26.2634 116.36 23.726C127.896 21.7864 141.545 23.3375 156.93 28.336C170.386 32.7085 184.878 39.693 198.837 48.5365C211.666 56.6657 223.762 66.2355 232.899 75.4854C242.307 85.0119 248.184 93.673 249.895 100.531C251.614 107.413 249.024 112.221 242.407 114.432C235 116.909 228.915 122.955 223.262 133.463C218.187 142.894 214.137 154.642 209.85 167.082C204.288 183.221 198.536 199.909 189.896 213.471C180.029 228.959 167.864 237.726 152.707 240.274C149.528 240.807 146.181 241.075 142.677 241.075Z" fill="white"/>
<path d="M13.9991 159.789C13.5345 159.789 13.4017 159.902 13.3751 159.931C13.2815 160.034 13.292 160.46 13.9242 161.404C18.3526 168.024 46.2275 189.288 79.8279 207.542C98.2004 217.523 114.938 224.806 129.576 229.19C147.004 234.41 160.797 235.265 170.571 231.734C181.795 227.678 188.823 217.482 192.06 200.563C194.928 185.569 194.526 167.526 194.139 150.078C193.838 136.541 193.554 123.754 194.819 113.288C196.255 101.411 199.487 94.2888 204.99 90.8728C211.582 86.7813 221.379 88.2397 234.939 95.3334C250.516 103.482 252.528 102.523 252.773 102.249C252.909 102.095 252.83 101.563 252.155 100.565C249.695 96.9234 241.466 89.8835 230.142 81.7334C217.323 72.5073 202.271 63.1049 187.755 55.2582C169.881 45.5943 153.531 38.5754 139.163 34.3972C122.077 29.427 108.423 28.7097 98.5807 32.2663C87.2866 36.3473 80.1354 46.6328 76.7183 63.7101C73.6927 78.8314 73.9138 96.9786 74.1276 114.53C74.2917 128.01 74.4468 140.745 73.1028 151.117C71.5786 162.879 68.3346 169.89 62.8934 173.181C56.4729 177.062 47.05 175.545 34.0868 168.543C27.5453 165.008 22.3915 162.501 18.7686 161.09C16.0338 160.025 14.6704 159.789 13.9991 159.789ZM156.828 234.761C149.001 234.761 139.803 233.189 129.319 230.05C114.622 225.647 97.8266 218.34 79.3999 208.329C64.4715 200.22 48.9809 190.55 35.7815 181.101C24.0547 172.706 15.6051 165.53 13.179 161.903C12.8845 161.462 11.988 160.123 12.7119 159.327C13.1995 158.792 14.3655 158.412 19.0941 160.255C22.7513 161.679 27.9389 164.202 34.513 167.754C42.7012 172.177 49.4141 174.376 54.7916 174.376C57.7283 174.376 60.266 173.722 62.4295 172.413C67.6184 169.276 70.7274 162.473 72.2136 151.002C73.5496 140.693 73.3948 127.989 73.231 114.54C73.0167 96.9428 72.7951 78.7477 75.8391 63.5338C79.323 46.1233 86.6621 35.6196 98.276 31.4234C108.301 27.8012 122.142 28.511 139.413 33.535C153.844 37.7326 170.252 44.7754 188.182 54.4692C202.73 62.3339 217.818 71.7587 230.665 81.0056C242.071 89.2141 250.383 96.3391 252.899 100.063C253.222 100.541 254.202 101.995 253.441 102.845C252.751 103.618 251.006 103.445 247.779 102.285C244.622 101.149 240.161 99.0782 234.523 96.1284C221.268 89.1946 211.761 87.7242 205.463 91.6334C193.897 98.8137 194.449 123.705 195.035 150.059C195.424 167.553 195.826 185.644 192.94 200.732C191.373 208.932 189 215.416 185.688 220.559C181.975 226.324 176.991 230.368 170.876 232.577C166.844 234.033 162.152 234.761 156.828 234.761Z" fill="white"/>
<path d="M178.083 61.0187C200.754 72.0723 222.175 84.3408 237.63 93.1918C243.335 96.4584 248.262 99.2797 251.756 101.169C255.852 103.383 257.192 103.869 257.617 103.915C257.364 103.376 255.837 101.718 250.477 97.1189C245.723 93.0394 238.5 87.0904 227.057 77.8285C203.027 58.3827 188.178 50.9752 181.659 55.1848C179.929 56.301 178.741 58.2198 178.083 61.0187ZM7.14323 155.969C7.35005 156.526 9.00353 158.369 15.2285 163.756C20.6504 168.447 28.9071 175.304 42.0003 185.99C65.2294 204.947 79.6414 212.176 86.0592 208.087C88.0042 206.848 89.2721 204.59 89.8803 201.204C66.8077 189.702 44.7357 176.917 29.0189 167.812C22.7884 164.203 17.4074 161.086 13.5855 158.997C8.96364 156.473 7.55433 155.985 7.14323 155.969ZM90.5235 200.85C98.0639 204.599 105.716 208.211 113.307 211.523C130.318 218.94 145.008 223.917 156.968 226.314C171.008 229.129 181.68 228.473 188.689 224.368C198.755 218.471 202.676 204.947 200.675 183.024C198.919 163.772 192.798 140.41 187.398 119.797C180.878 94.9103 175.056 72.6909 177.418 61.3594C170.198 57.8462 162.855 54.46 155.54 51.3488C138.779 44.2208 124.254 39.4807 112.369 37.2617C98.3936 34.6525 87.6877 35.449 80.5483 39.6317C70.4405 45.5522 66.4053 59.085 68.2121 81.004C69.7979 100.241 75.7001 123.545 80.9073 144.107C86.9469 167.954 92.3609 189.333 90.5235 200.85ZM172.405 228.636C150.948 228.637 119.902 216.134 90.4156 201.47C89.7871 204.801 88.5009 207.24 86.3803 208.591C83.0785 210.695 78.0326 210.061 70.9539 206.657C63.4589 203.053 53.8644 196.443 41.6224 186.454C8.02041 159.031 5.9769 156.499 6.60467 155.592C6.90728 155.155 7.60065 155.069 13.409 158.221C17.2708 160.315 22.5874 163.394 29.3185 167.295C45.1408 176.459 67.0181 189.133 89.9828 200.581C90.5325 196.918 90.3705 192.029 89.5168 185.783C87.9579 174.381 84.2517 159.747 80.3279 144.253C75.1149 123.669 69.2063 100.339 67.6163 81.0518C65.7887 58.8818 69.92 45.1652 80.2462 39.1161C87.5134 34.8587 98.3582 34.0369 112.478 36.6744C124.407 38.901 138.974 43.6529 155.774 50.7989C163.055 53.8951 170.365 57.2664 177.553 60.7601C178.231 57.9717 179.451 55.8991 181.335 54.6812C184.685 52.5189 189.854 53.1614 197.138 56.6447C204.856 60.3358 214.766 67.1141 227.432 77.3652C256.952 101.254 258.739 103.479 258.176 104.304C257.886 104.725 257.268 104.804 251.932 101.943C248.398 100.048 243.516 97.2504 237.334 93.7103C221.915 84.8803 200.56 72.6491 177.952 61.6209C177.191 65.4329 177.332 70.7528 178.346 77.7553C180.017 89.2706 183.883 104.024 187.976 119.645C193.381 140.28 199.509 163.669 201.27 182.969C203.294 205.148 199.278 218.858 188.991 224.883C184.557 227.482 178.922 228.636 172.405 228.636Z" fill="white"/>
<path d="M174.531 70.8216C187.212 76.7003 199.544 82.7374 210.679 88.1903C224.858 95.1315 237.101 101.127 246.288 104.984C256.13 109.116 261.478 110.312 262.639 108.642C264.985 105.269 251.327 89.6771 219.656 59.5707C201.386 42.1407 187.679 30.2368 177.752 23.1805C168.529 16.6249 162.717 14.3535 159.985 16.2378C154.232 20.2053 162.844 42.8236 174.531 70.8216ZM93.0359 189.983C109.611 197.964 126.721 205.681 142.544 211.533C158.094 217.285 170.697 220.653 181.072 221.831C192.828 223.165 201.504 221.535 206.86 216.983C216.321 208.943 217.093 191.134 209.222 162.537C202.393 137.725 190.174 108.737 179.392 83.1633C177.661 79.0524 175.951 74.9983 174.3 71.0427C158.155 63.5606 141.448 56.3414 125.934 50.923C110.72 45.6106 98.3513 42.5771 88.1203 41.6506C76.5212 40.6001 67.8889 42.4052 62.463 47.0167C52.9815 55.0742 52.0882 72.8031 59.7319 101.218C66.3627 125.866 78.3309 154.626 88.8901 179.998C90.2941 183.372 91.6828 186.709 93.0359 189.983ZM2.9316 148.402C1.91485 148.402 1.2424 148.639 0.907219 149.113C-1.61113 152.671 13.8061 170.171 49.426 204.187C67.2215 221.148 80.5875 232.726 90.2876 239.58C97.2412 244.495 102.223 246.924 105.381 246.924C106.317 246.924 107.093 246.71 107.713 246.284C113.597 242.243 104.643 218.848 92.8033 190.203C79.7021 183.891 66.9425 177.42 55.423 171.577C40.5643 164.041 27.732 157.534 18.0844 153.306C10.6003 150.026 5.58973 148.402 2.9316 148.402ZM105.406 247.212C102.158 247.212 97.1107 244.769 90.1151 239.825C80.4029 232.96 67.0261 221.375 49.2197 204.404C30.5616 186.585 17.6754 173.538 9.82469 164.517C2.23031 155.788 -0.680844 150.839 0.663195 148.94C3.51185 144.915 25.3431 155.987 55.5581 171.311C66.9869 177.108 79.6398 183.525 92.6319 189.787C91.3216 186.619 89.9773 183.389 88.614 180.113C78.0513 154.732 66.0792 125.963 59.4433 101.294C51.7665 72.7583 52.6909 54.9293 62.2694 46.7896C67.7589 42.1243 76.4655 40.2952 88.1472 41.3532C98.403 42.2827 110.795 45.3207 126.032 50.6405C141.463 56.0291 158.07 63.1989 174.129 70.6348C169.098 58.577 164.618 47.468 161.673 38.5722C157.284 25.3204 156.695 18.1446 159.817 15.9913C162.663 14.0277 168.587 16.2991 177.925 22.937C187.864 30.0022 201.582 41.9136 219.862 59.354C236.427 75.1013 247.865 86.6705 254.827 94.7206C261.58 102.53 264.139 107.008 262.884 108.814C262.482 109.392 261.689 109.664 260.537 109.664C253.858 109.664 235.11 100.486 210.549 88.4593C199.502 83.0498 187.275 77.0634 174.702 71.2295C176.31 75.0789 177.976 79.03 179.669 83.0468C190.454 108.63 202.677 137.628 209.511 162.457C217.414 191.179 216.612 209.088 207.054 217.21C204.255 219.589 200.554 221.197 196.054 221.989C191.831 222.733 186.779 222.779 181.039 222.128C170.639 220.947 158.013 217.573 142.44 211.814C126.704 205.994 109.694 198.329 93.207 190.397C98.4604 203.111 103.17 214.856 106.195 224.157C110.464 237.281 111 244.389 107.882 246.53C107.222 246.985 106.397 247.212 105.406 247.212Z" fill="white"/>
</svg>
