<svg width="264" height="264" viewBox="0 0 264 264" fill="none" xmlns="http://www.w3.org/2000/svg">
<path d="M131.868 42.9705C82.9715 42.9705 43.1909 82.7498 43.1909 131.647C43.1909 180.544 82.9715 220.325 131.868 220.325C180.765 220.325 220.546 180.544 220.546 131.647C220.546 82.7498 180.765 42.9705 131.868 42.9705ZM131.868 220.48C119.876 220.48 108.243 218.13 97.2909 213.5C86.7126 209.025 77.2126 202.619 69.0545 194.462C60.8961 186.303 54.4911 176.804 50.0169 166.226C45.3846 155.274 43.036 143.639 43.036 131.647C43.036 119.655 45.3846 108.022 50.0169 97.07C54.4911 86.4917 60.8961 76.9914 69.0545 68.8339C77.2126 60.6748 86.7126 54.2705 97.2909 49.796C108.243 45.1635 119.876 42.8156 131.868 42.8156C143.86 42.8156 155.495 45.1635 166.446 49.796C177.025 54.2705 186.525 60.6748 194.683 68.8339C202.84 76.9914 209.246 86.4917 213.72 97.07C218.353 108.022 220.701 119.655 220.701 131.647C220.701 143.639 218.353 155.274 213.72 166.226C209.246 176.804 202.84 186.303 194.683 194.462C186.525 202.619 177.025 209.025 166.446 213.5C155.495 218.13 143.86 220.48 131.868 220.48Z" fill="white"/>
<path d="M48.6844 101.371C35.096 138.705 61.3573 182.66 107.225 199.355C153.093 216.049 201.465 199.259 215.052 161.925C228.642 124.591 202.38 80.6362 156.512 63.9417C110.644 47.2471 62.2728 64.0377 48.6844 101.371ZM215.489 162.083C212.139 171.289 206.675 179.412 199.25 186.229C192.082 192.81 183.398 197.902 173.438 201.362C163.482 204.822 152.752 206.478 141.548 206.284C129.952 206.083 118.35 203.899 107.066 199.792C95.7828 195.684 85.4916 189.901 76.4784 182.6C67.7709 175.547 60.6162 167.381 55.2129 158.333C49.8076 149.279 46.4275 139.796 45.1668 130.147C43.8608 120.152 44.8974 110.418 48.2478 101.212C51.5983 92.0075 57.0617 83.884 64.4864 77.0662C71.6545 70.4853 80.3393 65.3944 90.2994 61.9329C100.255 58.4744 110.984 56.8187 122.189 57.0123C133.785 57.2137 145.387 59.3975 156.67 63.5049C167.953 67.6108 178.245 73.3955 187.259 80.6966C195.967 87.7498 203.121 95.9135 208.524 104.963C213.93 114.017 217.309 123.499 218.57 133.148C219.877 143.143 218.839 152.878 215.489 162.083Z" fill="white"/>
<path d="M55.2726 87.424C46.7695 102.152 46.7279 120.598 55.155 139.363C63.5977 158.162 79.5234 175.026 99.9987 186.848C120.474 198.668 143.041 204.029 163.544 201.941C184.008 199.856 199.961 190.597 208.464 175.87C216.967 161.142 217.009 142.698 208.581 123.932C200.139 105.133 184.214 88.2681 163.738 76.4476C143.262 64.6257 120.696 59.2653 100.194 61.353C79.7288 63.4377 63.7757 72.6965 55.2726 87.424ZM209.001 176.18C204.649 183.716 198.384 189.846 190.38 194.398C182.658 198.789 173.65 201.533 163.606 202.557C153.573 203.579 143.008 202.83 132.21 200.332C121.034 197.747 110.092 193.39 99.6889 187.384C89.2858 181.377 80.0422 174.079 72.2149 165.694C64.6518 157.591 58.7219 148.817 54.5899 139.617C50.4543 130.408 48.3278 121.233 48.2695 112.35C48.2091 103.141 50.3849 94.6507 54.7361 87.1142C59.0873 79.5778 65.3522 73.4492 73.357 68.8972C81.0795 64.5064 90.0876 61.7604 100.131 60.7382C110.165 59.716 120.728 60.464 131.527 62.9622C142.703 65.5487 153.646 69.904 164.047 75.9102C174.451 81.9165 183.695 89.2144 191.521 97.5996C199.084 105.703 205.015 114.477 209.147 123.678C213.282 132.887 215.409 142.061 215.467 150.945C215.528 160.153 213.352 168.643 209.001 176.18Z" fill="white"/>
<path d="M64.175 74.8461C54.6807 86.1601 52.769 102.701 58.7923 121.42C64.8357 140.204 78.1352 158.913 96.241 174.107C114.347 189.299 135.083 199.148 154.629 201.837C174.11 204.519 190.069 199.763 199.563 188.449C209.057 177.134 210.968 160.594 204.945 141.874C198.902 123.091 185.602 104.38 167.497 89.188C149.391 73.9958 128.654 64.147 109.108 61.4567C89.6268 58.7758 73.6693 63.5306 64.175 74.8461ZM200.156 188.946C195.262 194.779 188.701 198.911 180.658 201.23C172.91 203.462 164.117 203.925 154.524 202.605C144.946 201.287 135.051 198.258 125.112 193.6C114.829 188.782 104.948 182.423 95.7432 174.7C86.5388 166.976 78.5605 158.35 72.0298 149.06C65.7182 140.08 61.0163 130.862 58.0552 121.659C55.0892 112.44 54.0181 103.7 54.8716 95.6821C55.7575 87.3573 58.688 80.1802 63.5818 74.3474C68.4755 68.5162 75.0353 64.3824 83.079 62.0654C90.8278 59.832 99.6208 59.3689 109.214 60.6901C118.791 62.0081 128.687 65.0376 138.625 69.6933C148.908 74.5116 158.789 80.8709 167.994 88.5948C177.198 96.3187 185.176 104.944 191.707 114.235C198.019 123.214 202.721 132.434 205.682 141.637C208.648 150.853 209.718 159.593 208.865 167.613C207.979 175.936 205.049 183.115 200.156 188.946Z" fill="white"/>
<path d="M75.1166 64.0129C55.2157 80.7121 64.484 124.639 95.7771 161.933C127.07 199.226 168.72 215.981 188.621 199.282C208.521 182.583 199.253 138.657 167.96 101.364C136.668 64.0703 95.0174 47.3153 75.1166 64.0129ZM189.219 199.994C184.216 204.192 177.838 206.436 170.263 206.664C162.985 206.884 154.911 205.24 146.264 201.782C128.535 194.688 110.352 180.748 95.0653 162.529C79.7781 144.31 69.2074 123.984 65.3007 105.292C63.3954 96.1769 63.1796 87.9404 64.6594 80.8112C66.1995 73.3909 69.5169 67.4993 74.5192 63.302C79.5215 59.1048 85.8988 56.8606 93.4742 56.6314C100.752 56.413 108.826 58.0547 117.473 61.5147C135.201 68.6082 153.385 82.5474 168.672 100.766C183.959 118.984 194.529 139.313 198.437 158.003C200.342 167.12 200.557 175.356 199.078 182.485C197.537 189.906 194.22 195.797 189.219 199.994Z" fill="white"/>
<path d="M87.762 55.2528C83.2871 57.8362 80.0821 62.3385 78.2361 68.6344C76.4341 74.7785 75.9963 82.3537 76.9351 91.1493C78.8736 109.309 86.449 130.582 98.2657 151.049C110.082 171.515 124.717 188.713 139.474 199.471C146.622 204.681 153.401 208.09 159.624 209.602C165.999 211.15 171.5 210.625 175.975 208.042C180.449 205.459 183.655 200.958 185.501 194.662C187.303 188.516 187.741 180.941 186.802 172.147C184.863 153.987 177.288 132.714 165.471 112.247C153.655 91.7797 139.02 74.5834 124.262 63.8239C117.115 58.6137 110.336 55.2063 104.113 53.6931C97.7383 52.1443 92.237 52.6694 87.762 55.2528ZM176.517 208.982C171.793 211.709 166.022 212.272 159.368 210.656C153.006 209.109 146.098 205.641 138.836 200.347C123.959 189.501 109.217 172.186 97.3268 151.591C85.436 130.995 77.8113 109.571 75.8572 91.2639C74.9031 82.3273 75.3535 74.6112 77.1958 68.3293C79.1228 61.7577 82.4955 57.0417 87.2199 54.3142C91.9446 51.5868 97.7143 51.023 104.369 52.64C110.731 54.1857 117.639 57.655 124.901 62.9488C139.778 73.795 154.519 91.1091 166.411 111.705C178.301 132.301 185.926 153.725 187.88 172.031C188.834 180.967 188.384 188.685 186.541 194.967C184.614 201.538 181.242 206.253 176.517 208.982Z" fill="white"/>
<path d="M101.724 48.827C97.9596 50.1977 95.059 53.6701 93.103 59.1498C91.1758 64.5473 90.2504 71.6269 90.3528 80.1902C90.5642 97.8837 95.1335 119.863 103.219 142.076C111.304 164.29 121.931 184.064 133.143 197.753C138.568 204.379 143.828 209.207 148.773 212.103C153.794 215.043 158.247 215.839 162.012 214.468C165.777 213.097 168.678 209.625 170.634 204.147C172.561 198.748 173.486 191.67 173.383 183.106C173.173 165.413 168.604 143.434 160.519 121.221C152.433 99.0066 141.807 79.2331 130.595 65.5432C125.168 58.9175 119.91 54.0899 114.963 51.1936C109.943 48.254 105.489 47.4579 101.724 48.827ZM162.437 215.633C154.363 218.571 143.619 212.501 132.184 198.539C120.886 184.742 110.186 164.841 102.054 142.5C93.9226 120.159 89.327 98.034 89.1139 80.2042C88.8981 62.1591 93.2263 50.602 101.3 47.6639C109.375 44.7243 120.119 50.7956 131.553 64.758C142.85 78.5531 153.551 98.4552 161.682 120.797C169.815 143.138 174.41 165.261 174.623 183.091C174.839 201.138 170.51 212.693 162.437 215.633Z" fill="white"/>
<path d="M116.577 44.9267C110.986 45.9133 107.035 56.0378 105.738 72.7044C104.399 89.9069 105.923 112.207 110.03 135.499C114.136 158.79 120.331 180.267 127.473 195.973C134.393 211.192 141.568 219.354 147.159 218.368C152.75 217.382 156.701 207.258 157.999 190.591C159.339 173.389 157.815 151.088 153.708 127.797C149.6 104.506 143.407 83.0287 136.264 67.3223C129.345 52.1038 122.169 43.9417 116.577 44.9267ZM147.401 219.741C144.105 220.322 140.53 218.454 136.778 214.192C133.274 210.212 129.717 204.275 126.204 196.55C119.015 180.739 112.783 159.143 108.657 135.741C104.53 112.337 103 89.9116 104.348 72.596C105.007 64.1365 106.319 57.3419 108.251 52.4012C110.318 47.112 113.039 44.1353 116.335 43.5545C119.632 42.9736 123.206 44.84 126.958 49.1038C130.463 53.0842 134.021 59.0192 137.534 66.7446C144.722 82.5548 150.954 104.151 155.08 127.555C159.207 150.958 160.738 173.383 159.389 190.698C158.73 199.159 157.417 205.954 155.487 210.893C153.418 216.182 150.698 219.159 147.401 219.741Z" fill="white"/>
<path d="M260.689 131.647C260.689 129.335 257.319 126.748 251.198 124.361C244.727 121.838 235.433 119.566 223.576 117.612C199.089 113.572 166.521 111.348 131.868 111.348C97.2164 111.348 64.6474 113.572 40.1612 117.612C28.3041 119.566 19.0103 121.838 12.5382 124.361C6.41813 126.748 3.04778 129.335 3.04778 131.647C3.04778 133.959 6.41813 136.547 12.5382 138.934C19.0103 141.457 28.3041 143.728 40.1612 145.684C64.6471 149.721 97.2161 151.945 131.868 151.945C166.521 151.945 199.091 149.721 223.576 145.684C235.433 143.728 244.727 141.457 251.198 138.934C257.319 136.547 260.689 133.959 260.689 131.647ZM0.780029 131.647C0.780029 128.192 4.35683 125.117 11.7144 122.249C18.3332 119.668 27.78 117.355 39.7923 115.374C64.3967 111.316 97.0965 109.081 131.868 109.081C166.64 109.081 199.34 111.316 223.946 115.374C235.957 117.355 245.404 119.668 252.022 122.249C259.381 125.117 262.957 128.192 262.957 131.647C262.957 135.102 259.381 138.177 252.022 141.047C245.404 143.627 235.957 145.941 223.946 147.922C199.341 151.98 166.64 154.213 131.868 154.213C97.0963 154.213 64.3962 151.98 39.7923 147.922C27.7796 145.941 18.3332 143.627 11.7144 141.047C4.35683 138.177 0.780029 135.102 0.780029 131.647Z" fill="white"/>
<circle cx="132" cy="132" r="112" stroke="white" stroke-miterlimit="10"/>
</svg>
