<svg width="176" height="64" viewBox="0 0 176 64" fill="none" xmlns="http://www.w3.org/2000/svg">
<rect width="175.264" height="64" rx="12" fill="white"/>
<path d="M40.1376 51.9999C27.4473 51.9999 19.7209 43.3755 19.7209 32.2124C19.7209 31.1103 19.7855 30.0664 19.9074 29.0776C21.11 32.1941 23.3494 37.5466 27.3258 41.5231C31.0318 45.229 34.5341 46.9566 39.4374 46.9566C43.43 46.9566 46.7892 45.4067 49.5151 43.0036L52.7327 47.2465C49.19 50.1761 45.1146 51.9999 40.1376 51.9999Z" fill="url(#paint0_radial_14_3480)"/>
<path d="M39.5252 17.4738C43.271 17.4738 46.7026 19.2506 49.3635 21.3946L52.7329 16.6894C49.2349 13.9074 44.9738 11.9999 40.1377 12C36.2621 12 25.4858 13.9808 21.3584 23.5835C21.4741 24.484 22.2342 27.1168 24.3488 30.4437C25.3508 23.2221 31.7636 17.4738 39.5252 17.4738Z" fill="url(#paint1_radial_14_3480)"/>
<path d="M28.5703 32.6899C28.5703 38.6749 33.49 43.5266 39.5587 43.5266C41.5573 43.5266 43.4313 43.0004 45.0459 42.0808L42.4033 38.6489C41.5391 39.0519 40.5752 39.2769 39.5587 39.2769C39.323 39.2769 39.0901 39.2648 38.8606 39.2412C33.3239 39.2412 29.7302 34.1452 28.6255 31.5972C28.589 31.9565 28.5703 32.3211 28.5703 32.6899Z" fill="url(#paint2_linear_14_3480)"/>
<path d="M39.5588 25.7991C35.837 25.7991 32.82 28.8162 32.82 32.5379C32.82 32.6498 32.8227 32.7612 32.8281 32.8718C31.7706 32.1433 29.6835 30.0913 29.7959 27.7115C31.6242 24.2312 35.3099 21.853 39.5588 21.853C42.4191 21.853 45.0242 22.9308 46.9792 24.6971L44.5816 28.0454C43.3477 26.6668 41.5545 25.7991 39.5588 25.7991Z" fill="url(#paint3_linear_14_3480)"/>
<path d="M42.6245 32.2046H46.8135V39.5215C46.8135 39.5215 45.1925 38.1835 44.4154 37.2738C42.6245 35.1774 42.6245 32.2046 42.6245 32.2046Z" fill="#D000E4"/>
<path d="M72.0273 22.918C74.207 22.918 75.8984 23.4922 77.1016 24.6406C78.3047 25.7891 78.9727 27.0938 79.1055 28.5547H76.832C76.5742 27.4453 76.0586 26.5664 75.2852 25.918C74.5195 25.2695 73.4414 24.9453 72.0508 24.9453C70.3555 24.9453 68.9844 25.543 67.9375 26.7383C66.8984 27.9258 66.3789 29.75 66.3789 32.2109C66.3789 34.2266 66.8477 35.8633 67.7852 37.1211C68.7305 38.3711 70.1367 38.9961 72.0039 38.9961C73.7227 38.9961 75.0312 38.3359 75.9297 37.0156C76.4062 36.3203 76.7617 35.4062 76.9961 34.2734H79.2695C79.0664 36.0859 78.3945 37.6055 77.2539 38.832C75.8867 40.3086 74.043 41.0469 71.7227 41.0469C69.7227 41.0469 68.043 40.4414 66.6836 39.2305C64.8945 37.6289 64 35.1562 64 31.8125C64 29.2734 64.6719 27.1914 66.0156 25.5664C67.4688 23.8008 69.4727 22.918 72.0273 22.918Z" fill="#32395E"/>
<path d="M97.3132 36.6641C97.3757 37.3672 97.5515 37.9062 97.8406 38.2812C98.3718 38.9609 99.2937 39.3008 100.606 39.3008C101.387 39.3008 102.075 39.1328 102.669 38.7969C103.262 38.4531 103.559 37.9258 103.559 37.2148C103.559 36.6758 103.321 36.2656 102.844 35.9844C102.54 35.8125 101.938 35.6133 101.04 35.3867L99.364 34.9648C98.2937 34.6992 97.5046 34.4023 96.9968 34.0742C96.0906 33.5039 95.6374 32.7148 95.6374 31.707C95.6374 30.5195 96.0632 29.5586 96.9148 28.8242C97.7742 28.0898 98.9265 27.7227 100.372 27.7227C102.262 27.7227 103.626 28.2773 104.462 29.3867C104.985 30.0898 105.239 30.8477 105.223 31.6602H103.231C103.192 31.1836 103.024 30.75 102.727 30.3594C102.243 29.8047 101.403 29.5273 100.208 29.5273C99.4109 29.5273 98.8054 29.6797 98.3913 29.9844C97.9851 30.2891 97.782 30.6914 97.782 31.1914C97.782 31.7383 98.0515 32.1758 98.5906 32.5039C98.9031 32.6992 99.364 32.8711 99.9734 33.0195L101.368 33.3594C102.884 33.7266 103.899 34.082 104.415 34.4258C105.235 34.9648 105.645 35.8125 105.645 36.9688C105.645 38.0859 105.219 39.0508 104.368 39.8633C103.524 40.6758 102.235 41.082 100.501 41.082C98.6335 41.082 97.3093 40.6602 96.5281 39.8164C95.7546 38.9648 95.3406 37.9141 95.2859 36.6641H97.3132Z" fill="#32395E"/>
<path d="M141.309 24.5469H143.441V28.0508H145.445V29.7734H143.441V37.9648C143.441 38.4023 143.59 38.6953 143.887 38.8438C144.051 38.9297 144.324 38.9727 144.707 38.9727C144.809 38.9727 144.918 38.9727 145.035 38.9727C145.152 38.9648 145.289 38.9531 145.445 38.9375V40.6016C145.203 40.6719 144.949 40.7227 144.684 40.7539C144.426 40.7852 144.145 40.8008 143.84 40.8008C142.855 40.8008 142.188 40.5508 141.836 40.0508C141.484 39.543 141.309 38.8867 141.309 38.082V29.7734H139.609V28.0508H141.309V24.5469Z" fill="#32395E"/>
<path d="M153.733 27.7695C154.623 27.7695 155.487 27.9805 156.322 28.4023C157.158 28.8164 157.795 29.3555 158.233 30.0195C158.655 30.6523 158.936 31.3906 159.076 32.2344C159.201 32.8125 159.264 33.7344 159.264 35H150.065C150.104 36.2734 150.405 37.2969 150.967 38.0703C151.53 38.8359 152.401 39.2188 153.58 39.2188C154.682 39.2188 155.561 38.8555 156.217 38.1289C156.592 37.707 156.858 37.2188 157.014 36.6641H159.088C159.033 37.125 158.85 37.6406 158.537 38.2109C158.233 38.7734 157.889 39.2344 157.506 39.5938C156.865 40.2188 156.072 40.6406 155.127 40.8594C154.619 40.9844 154.045 41.0469 153.405 41.0469C151.842 41.0469 150.518 40.4805 149.432 39.3477C148.346 38.207 147.803 36.6133 147.803 34.5664C147.803 32.5508 148.35 30.9141 149.444 29.6562C150.537 28.3984 151.967 27.7695 153.733 27.7695ZM157.096 33.3242C157.01 32.4102 156.811 31.6797 156.498 31.1328C155.92 30.1172 154.955 29.6094 153.604 29.6094C152.635 29.6094 151.822 29.9609 151.166 30.6641C150.51 31.3594 150.162 32.2461 150.123 33.3242H157.096Z" fill="#32395E"/>
<path fill-rule="evenodd" clip-rule="evenodd" d="M88.7812 32.9961C89.2656 32.9336 89.5898 32.7305 89.7539 32.3867C89.8477 32.1992 89.8945 31.9297 89.8945 31.5781C89.8945 30.8594 89.6367 30.3398 89.1211 30.0195C88.6133 29.6914 87.8828 29.5273 86.9297 29.5273C85.8281 29.5273 85.0469 29.8242 84.5859 30.418C84.3281 30.7461 84.1602 31.2344 84.082 31.8828H82.1133C82.1523 30.3359 82.6523 29.2617 83.6133 28.6602C84.582 28.0508 85.7031 27.7461 86.9766 27.7461C88.4531 27.7461 89.6523 28.0273 90.5742 28.5898C91.4883 29.1523 91.9453 30.0273 91.9453 31.2148V38.4453V40.6016H89.9414V38.9375C89.5117 39.5 88.8945 39.9883 88.0898 40.4023C87.2852 40.8164 86.3984 41.0234 85.4297 41.0234C84.2656 41.0234 83.3125 40.6719 82.5703 39.9688C81.8359 39.2578 81.4688 38.3711 81.4688 37.3086C81.4688 36.1445 81.832 35.2422 82.5586 34.6016C83.2852 33.9609 84.2383 33.5664 85.418 33.418L88.7812 32.9961ZM84.3398 38.7031C83.8945 38.3516 83.6719 37.8711 83.6719 37.2617C83.6719 36.457 83.9961 35.8711 84.6445 35.5039C85.0273 35.2852 85.6016 35.125 86.3672 35.0234L87.6445 34.8594C88.0352 34.8125 88.4336 34.7344 88.8398 34.625C89.2461 34.5156 89.5781 34.3789 89.8359 34.2148V35.9141C89.8359 37.2109 89.25 38.1445 88.0781 38.7148C87.3828 39.0586 86.6641 39.2305 85.9219 39.2305C85.3125 39.2305 84.7852 39.0547 84.3398 38.7031Z" fill="#32395E"/>
<path fill-rule="evenodd" clip-rule="evenodd" d="M133.258 32.9961C133.742 32.9336 134.066 32.7305 134.23 32.3867C134.324 32.1992 134.371 31.9297 134.371 31.5781C134.371 30.8594 134.113 30.3398 133.598 30.0195C133.09 29.6914 132.359 29.5273 131.406 29.5273C130.305 29.5273 129.523 29.8242 129.062 30.418C128.805 30.7461 128.637 31.2344 128.559 31.8828H126.59C126.629 30.3359 127.129 29.2617 128.09 28.6602C129.059 28.0508 130.18 27.7461 131.453 27.7461C132.93 27.7461 134.129 28.0273 135.051 28.5898C135.965 29.1523 136.422 30.0273 136.422 31.2148V38.4453V40.6016H134.418V38.9375C133.988 39.5 133.371 39.9883 132.566 40.4023C131.762 40.8164 130.875 41.0234 129.906 41.0234C128.742 41.0234 127.789 40.6719 127.047 39.9688C126.312 39.2578 125.945 38.3711 125.945 37.3086C125.945 36.1445 126.309 35.2422 127.035 34.6016C127.762 33.9609 128.715 33.5664 129.895 33.418L133.258 32.9961ZM128.816 38.7031C128.371 38.3516 128.148 37.8711 128.148 37.2617C128.148 36.457 128.473 35.8711 129.121 35.5039C129.504 35.2852 130.078 35.125 130.844 35.0234L132.121 34.8594C132.512 34.8125 132.91 34.7344 133.316 34.625C133.723 34.5156 134.055 34.3789 134.312 34.2148V35.9141C134.312 37.2109 133.727 38.1445 132.555 38.7148C131.859 39.0586 131.141 39.2305 130.398 39.2305C129.789 39.2305 129.262 39.0547 128.816 38.7031Z" fill="#32395E"/>
<path d="M116.214 22.9414C117.831 22.9414 119.23 23.2539 120.409 23.8789C122.12 24.7773 123.167 26.3516 123.55 28.6016H121.241C120.96 27.3438 120.378 26.4297 119.495 25.8594C118.612 25.2812 117.499 24.9922 116.155 24.9922C114.562 24.9922 113.218 25.5898 112.124 26.7852C111.038 27.9805 110.495 29.7617 110.495 32.1289C110.495 34.1758 110.944 35.8438 111.843 37.1328C112.741 38.4141 114.206 39.0547 116.237 39.0547C117.792 39.0547 119.077 38.6055 120.093 37.707C121.116 36.8008 121.64 35.3398 121.663 33.3242H116.273V31.3906H123.831C123.831 35.2219 123.676 36.6016 122.445 38.1016C121.585 39.1501 120.894 39.6047 119.671 40.1914C118.263 40.8667 117.347 41.0586 115.769 41.0586C113.73 41.0586 111.976 40.3984 110.507 39.0781C108.905 37.4219 108.105 35.1484 108.105 32.2578C108.105 29.375 108.886 27.082 110.448 25.3789C111.933 23.7539 113.855 22.9414 116.214 22.9414Z" fill="#32395E"/>
<defs>
<radialGradient id="paint0_radial_14_3480" cx="0" cy="0" r="1" gradientUnits="userSpaceOnUse" gradientTransform="translate(52.7327 36.5752) rotate(168.492) scale(32.7122 73.7849)">
<stop stop-color="#E5D9F8"/>
<stop offset="0.668724" stop-color="#904BFF"/>
<stop offset="1" stop-color="#5C00FF"/>
</radialGradient>
<radialGradient id="paint1_radial_14_3480" cx="0" cy="0" r="1" gradientUnits="userSpaceOnUse" gradientTransform="translate(49.151 12.838) rotate(163.728) scale(26.4118 51.9274)">
<stop stop-color="#E5D9F8"/>
<stop offset="0.754192" stop-color="#8E4BFF"/>
<stop offset="1" stop-color="#6D1CF6"/>
</radialGradient>
<linearGradient id="paint2_linear_14_3480" x1="29.7115" y1="39.9925" x2="42.7925" y2="37.8816" gradientUnits="userSpaceOnUse">
<stop stop-color="#CF00E3" stop-opacity="0.05"/>
<stop offset="1" stop-color="#CF00E4"/>
</linearGradient>
<linearGradient id="paint3_linear_14_3480" x1="30.9821" y1="29.6075" x2="44.5336" y2="27.1376" gradientUnits="userSpaceOnUse">
<stop stop-color="#CF00E3" stop-opacity="0.05"/>
<stop offset="1" stop-color="#CF00E4"/>
</linearGradient>
</defs>
</svg>
