<svg width="62" height="48" viewBox="0 0 62 48" fill="none" xmlns="http://www.w3.org/2000/svg">
<g clip-path="url(#clip0_65_4913)">
<path d="M11.4768 47.7614V44.5844C11.4768 43.3665 10.7355 42.5722 9.4647 42.5722C8.82929 42.5722 8.14093 42.784 7.66437 43.4724C7.29372 42.8899 6.76421 42.5722 5.96995 42.5722C5.44044 42.5722 4.91094 42.7311 4.48733 43.3135V42.6781H3.37537V47.7614H4.48733V44.955C4.48733 44.0549 4.96389 43.6313 5.7052 43.6313C6.44651 43.6313 6.81716 44.1078 6.81716 44.955V47.7614H7.92913V44.955C7.92913 44.0549 8.45863 43.6313 9.14699 43.6313C9.8883 43.6313 10.259 44.1078 10.259 44.955V47.7614H11.4768ZM27.9445 42.6781H26.1442V41.1426H25.0322V42.6781H24.0261V43.6842H25.0322V46.014C25.0322 47.179 25.5088 47.8673 26.7796 47.8673C27.2561 47.8673 27.7856 47.7085 28.1563 47.4967L27.8386 46.5435C27.5209 46.7553 27.1502 46.8083 26.8855 46.8083C26.356 46.8083 26.1442 46.4906 26.1442 45.9611V43.6842H27.9445V42.6781ZM37.3697 42.5722C36.7343 42.5722 36.3107 42.8899 36.0459 43.3135V42.6781H34.934V47.7614H36.0459V44.9021C36.0459 44.0549 36.4166 43.5783 37.105 43.5783C37.3168 43.5783 37.5815 43.6313 37.7933 43.6842L38.111 42.6252C37.8992 42.5722 37.5815 42.5722 37.3697 42.5722ZM23.126 43.1017C22.5965 42.7311 21.8552 42.5722 21.0609 42.5722C19.7901 42.5722 18.9429 43.2076 18.9429 44.2137C18.9429 45.0609 19.5783 45.5375 20.6902 45.6963L21.2197 45.7493C21.8022 45.8552 22.1199 46.014 22.1199 46.2788C22.1199 46.6494 21.6963 46.9142 20.955 46.9142C20.2137 46.9142 19.6312 46.6494 19.2606 46.3847L18.7311 47.2319C19.3135 47.6555 20.1078 47.8673 20.902 47.8673C22.3847 47.8673 23.2319 47.179 23.2319 46.2258C23.2319 45.3257 22.5435 44.8491 21.4845 44.6903L20.955 44.6373C20.4784 44.5844 20.1078 44.4785 20.1078 44.1608C20.1078 43.7901 20.4784 43.5783 21.0609 43.5783C21.6963 43.5783 22.3317 43.8431 22.6494 44.0019L23.126 43.1017ZM52.6725 42.5722C52.0371 42.5722 51.6134 42.8899 51.3487 43.3135V42.6781H50.2367V47.7614H51.3487V44.9021C51.3487 44.0549 51.7193 43.5783 52.4077 43.5783C52.6195 43.5783 52.8843 43.6313 53.0961 43.6842L53.4138 42.6252C53.202 42.5722 52.8843 42.5722 52.6725 42.5722ZM38.4817 45.2198C38.4817 46.7553 39.5407 47.8673 41.1822 47.8673C41.9235 47.8673 42.453 47.7085 42.9825 47.2848L42.453 46.3847C42.0294 46.7024 41.6058 46.8612 41.1292 46.8612C40.229 46.8612 39.5936 46.2258 39.5936 45.2198C39.5936 44.2667 40.229 43.6313 41.1292 43.5783C41.6058 43.5783 42.0294 43.7372 42.453 44.0549L42.9825 43.1547C42.453 42.7311 41.9235 42.5722 41.1822 42.5722C39.5407 42.5722 38.4817 43.6842 38.4817 45.2198ZM48.7541 45.2198V42.6781H47.6421V43.3135C47.2715 42.837 46.742 42.5722 46.0536 42.5722C44.624 42.5722 43.512 43.6842 43.512 45.2198C43.512 46.7553 44.624 47.8673 46.0536 47.8673C46.7949 47.8673 47.3244 47.6026 47.6421 47.126V47.7614H48.7541V45.2198ZM44.6769 45.2198C44.6769 44.3196 45.2594 43.5783 46.2125 43.5783C47.1126 43.5783 47.748 44.2667 47.748 45.2198C47.748 46.1199 47.1126 46.8612 46.2125 46.8612C45.2594 46.8083 44.6769 46.1199 44.6769 45.2198ZM31.3863 42.5722C29.9037 42.5722 28.8447 43.6313 28.8447 45.2198C28.8447 46.8083 29.9037 47.8673 31.4392 47.8673C32.1805 47.8673 32.9219 47.6555 33.5043 47.179L32.9748 46.3847C32.5512 46.7024 32.0217 46.9142 31.4922 46.9142C30.8038 46.9142 30.1155 46.5965 29.9566 45.6963H33.7161V45.2727C33.7691 43.6313 32.816 42.5722 31.3863 42.5722ZM31.3863 43.5254C32.0746 43.5254 32.5512 43.949 32.6571 44.7432H30.0096C30.1155 44.0549 30.592 43.5254 31.3863 43.5254ZM58.9736 45.2198V40.666H57.8616V43.3135C57.491 42.837 56.9615 42.5722 56.2731 42.5722C54.8434 42.5722 53.7315 43.6842 53.7315 45.2198C53.7315 46.7553 54.8434 47.8673 56.2731 47.8673C57.0144 47.8673 57.5439 47.6026 57.8616 47.126V47.7614H58.9736V45.2198ZM54.8964 45.2198C54.8964 44.3196 55.4788 43.5783 56.432 43.5783C57.3321 43.5783 57.9675 44.2667 57.9675 45.2198C57.9675 46.1199 57.3321 46.8612 56.432 46.8612C55.4788 46.8083 54.8964 46.1199 54.8964 45.2198ZM17.725 45.2198V42.6781H16.613V43.3135C16.2424 42.837 15.7129 42.5722 15.0245 42.5722C13.5949 42.5722 12.4829 43.6842 12.4829 45.2198C12.4829 46.7553 13.5949 47.8673 15.0245 47.8673C15.7658 47.8673 16.2953 47.6026 16.613 47.126V47.7614H17.725V45.2198ZM13.5948 45.2198C13.5948 44.3196 14.1773 43.5783 15.1304 43.5783C16.0306 43.5783 16.666 44.2667 16.666 45.2198C16.666 46.1199 16.0306 46.8612 15.1304 46.8612C14.1773 46.8083 13.5948 46.1199 13.5948 45.2198Z" fill="#C2BEC9"/>
<circle cx="42.5784" cy="19.3335" r="19" fill="#C2BEC9"/>
<circle cx="19.5784" cy="19.3335" r="19" fill="#C2BEC9"/>
<path d="M30.4723 35.2546L31.0781 35.716L31.6839 35.2546C36.4796 31.6029 39.5781 25.8298 39.5781 19.3333C39.5781 12.8368 36.4796 7.06362 31.6839 3.41192L31.0781 2.95061L30.4723 3.41192C25.6767 7.06362 22.5781 12.8368 22.5781 19.3333C22.5781 25.8298 25.6767 31.6029 30.4723 35.2546Z" fill="#C2BEC9" stroke="white" stroke-width="2"/>
</g>
<defs>
<clipPath id="clip0_65_4913">
<rect width="61.7487" height="48" fill="white" transform="translate(0.251221)"/>
</clipPath>
</defs>
</svg>
