<svg width="126" height="48" viewBox="0 0 126 48" fill="none" xmlns="http://www.w3.org/2000/svg">
<g clip-path="url(#clip0_65_4895)">
<path d="M85.8774 27.2622L87.1241 27.6362C87.041 27.9894 86.9164 28.2804 86.7293 28.5089C86.5423 28.7375 86.3345 28.9245 86.0644 29.0284C85.7943 29.1531 85.4618 29.2154 85.0462 29.2154C84.5475 29.2154 84.1527 29.1531 83.8203 29.0076C83.5086 28.8622 83.2384 28.6128 83.0099 28.2388C82.7813 27.8855 82.6566 27.4076 82.6566 26.8466C82.6566 26.0985 82.8644 25.5167 83.2592 25.1011C83.654 24.6855 84.2358 24.4985 84.9631 24.4985C85.5449 24.4985 85.9813 24.6232 86.3138 24.8518C86.6462 25.0804 86.8956 25.4336 87.041 25.9323L85.7943 26.2024C85.7527 26.057 85.7112 25.9531 85.6488 25.8907C85.5657 25.7868 85.4826 25.7037 85.3579 25.6414C85.2332 25.5791 85.1086 25.5583 84.9839 25.5583C84.6722 25.5583 84.4229 25.683 84.2566 25.9531C84.1319 26.1401 84.0696 26.4518 84.0696 26.8466C84.0696 27.3453 84.1527 27.6985 84.2982 27.8856C84.4436 28.0726 84.6722 28.1765 84.9423 28.1765C85.2125 28.1765 85.4203 28.0933 85.5449 27.9479C85.7112 27.7609 85.8151 27.5531 85.8774 27.2622Z" fill="#C2BEC9"/>
<path d="M87.6228 26.8469C87.6228 26.0988 87.8306 25.517 88.2462 25.1014C88.6618 24.6858 89.2436 24.478 89.9916 24.478C90.7605 24.478 91.3423 24.6858 91.7579 25.0806C92.1734 25.4962 92.3812 26.0573 92.3812 26.8053C92.3812 27.3456 92.2981 27.7819 92.1111 28.1144C91.9241 28.4469 91.6748 28.717 91.3215 28.904C90.989 29.091 90.5527 29.1949 90.054 29.1949C89.5345 29.1949 89.1189 29.1118 88.7657 28.9456C88.4332 28.7793 88.1631 28.53 87.9345 28.156C87.7059 27.7819 87.6228 27.3871 87.6228 26.8469ZM89.0358 26.8469C89.0358 27.304 89.1189 27.6365 89.2851 27.8443C89.4514 28.0521 89.6799 28.156 89.9916 28.156C90.3033 28.156 90.5319 28.0521 90.6981 27.865C90.8644 27.6573 90.9475 27.304 90.9475 26.8053C90.9475 26.3689 90.8644 26.0573 90.6774 25.8702C90.5111 25.6624 90.2618 25.5793 89.9709 25.5793C89.6799 25.5793 89.4514 25.6832 89.2851 25.891C89.1189 26.0573 89.0358 26.3897 89.0358 26.8469Z" fill="#C2BEC9"/>
<path d="M93.1086 24.561H94.9579L95.6644 27.3454L96.3709 24.561H98.2203V29.1325H97.0566V25.6416L96.1631 29.1325H95.1242L94.2307 25.6416V29.1325H93.067V24.561H93.1086Z" fill="#C2BEC9"/>
<path d="M99.1345 24.561H101.483C102.002 24.561 102.376 24.6857 102.625 24.9351C102.875 25.1844 102.999 25.5169 102.999 25.974C102.999 26.4312 102.854 26.8052 102.584 27.0545C102.314 27.3247 101.877 27.4493 101.316 27.4493H100.548V29.1532H99.1345V24.561ZM100.548 26.5143H100.901C101.171 26.5143 101.358 26.4727 101.483 26.3688C101.586 26.2649 101.649 26.161 101.649 26.0156C101.649 25.8701 101.607 25.7454 101.503 25.6416C101.399 25.5377 101.233 25.4961 100.963 25.4961H100.568V26.5143H100.548Z" fill="#C2BEC9"/>
<path d="M103.747 24.561H105.16V28.0104H107.363V29.1325H103.747V24.561Z" fill="#C2BEC9"/>
<path d="M108.07 24.561H109.483V29.1325H108.07V24.561Z" fill="#C2BEC9"/>
<path d="M113.306 28.3634H111.706L111.477 29.1115H110.044L111.768 24.54H113.306L115.031 29.1115H113.555L113.306 28.3634ZM113.015 27.3868L112.516 25.7452L112.018 27.3868H113.015Z" fill="#C2BEC9"/>
<path d="M115.467 24.561H116.776L118.501 27.0961V24.561H119.831V29.1325H118.501L116.797 26.6182V29.1325H115.467V24.561Z" fill="#C2BEC9"/>
<path d="M120.454 24.561H124.755V25.6831H123.322V29.1325H121.909V25.6831H120.475V24.561H120.454Z" fill="#C2BEC9"/>
<path d="M72.9737 30.2335L68.8802 31.5219C69.6906 30.0881 70.6672 28.5089 71.6438 27.2829L72.9737 30.2335Z" fill="#C2BEC9"/>
<path d="M19.1337 23.9893V19.0231H20.8791C20.8791 19.0231 23.3934 19.127 23.6012 20.8517C23.6428 20.9764 23.6428 21.8283 23.6012 21.8699C23.2687 23.8854 21.0869 23.9893 21.0869 23.9893H19.1337Z" fill="#C2BEC9"/>
<path fill-rule="evenodd" clip-rule="evenodd" d="M59.4672 0.166016L67.488 18.0361C66.576 19.2808 63.8443 23.0542 61.2735 26.7514V14.888H54.0008V30.7687C52.9978 30.0894 51.9424 29.6117 50.9257 29.4405V28.6439C50.9257 28.5816 50.8842 28.5608 50.8426 28.6023C50.8426 28.6023 50.053 29.2257 46.6037 29.579C45.627 29.6829 45.1491 29.6413 44.7959 29.579C39.892 28.7478 39.6634 25.1738 39.6634 25.1738C39.6634 25.1394 39.6571 25.0925 39.6515 25.0504C39.6468 25.0159 39.6426 24.9846 39.6426 24.966V23.5945C39.6426 23.5322 39.6426 23.4283 39.6634 23.3868C39.6634 23.3868 39.9959 19.5426 44.7959 19.127H46.6037C48.7024 19.3971 50.4063 20.4361 50.4063 20.4361C50.4686 20.4569 50.5102 20.4361 50.5102 20.3738V15.553C50.5102 15.4906 50.4686 15.4283 50.4063 15.3868C50.4063 15.3868 49.4504 14.7634 46.5413 14.5971C46.3959 14.514 43.84 14.4932 43.1543 14.5971C32.5569 15.4491 32.1621 23.1166 32.1621 23.4491V25.3192C32.1621 25.5478 32.1621 33.3816 43.1543 34.0673C44.0363 34.1351 45.5968 34.0922 46.2534 34.0741C46.4011 34.0701 46.5032 34.0673 46.5413 34.0673C46.5532 34.0673 46.5651 34.0673 46.5769 34.0672C46.8084 35.353 47.4441 36.7322 48.3295 38.005L17.0152 47.8751L0.745117 3.49069L59.4672 0.166016ZM62.0839 8.88283C62.0839 11.2101 60.0891 13.0802 57.6372 13.0802C55.1852 13.0802 53.1904 11.1893 53.1904 8.88283C53.1904 6.55555 55.1852 4.68542 57.6372 4.68542C60.0891 4.68542 62.0839 6.55555 62.0839 8.88283ZM11.9648 33.8387C11.9648 33.901 12.0064 33.9426 12.0687 33.9426H19.1545C19.2168 33.9426 19.2584 33.901 19.2584 33.8387V28.3114C19.2584 28.2491 19.2999 28.2075 19.3622 28.2075C19.3622 28.2075 30.6869 29.0179 30.6869 21.4335C30.6869 15.4283 23.5804 14.7842 21.2532 14.888H12.0687C12.0064 14.888 11.9648 14.9296 11.9648 14.9919V33.8387Z" fill="#C2BEC9"/>
<path d="M57.8462 43.0752C58.428 43.0752 58.8852 43.0752 59.6332 42.7427C62.2099 41.392 70.9164 20.1349 80.1008 13.5895C80.1631 13.5479 80.2254 13.4856 80.267 13.4232C80.3293 13.3401 80.3293 13.257 80.3293 13.257C80.3293 13.257 80.3293 12.8206 78.9787 12.8206C70.8125 12.5921 62.3138 29.7349 57.8462 36.5089C57.7839 36.5921 57.493 36.5089 57.493 36.5089C57.493 36.5089 54.5008 32.9765 51.9034 31.6258C51.841 31.605 51.5501 31.5011 51.2384 31.5219C51.0306 31.5219 49.8254 31.7713 49.2644 32.3531C48.5995 33.0596 48.6203 33.4544 48.6203 34.3063C48.6203 34.3687 48.6618 34.6596 48.7449 34.805C49.3891 35.9271 52.2774 39.9167 54.667 42.1193C55.0202 42.3895 55.5813 43.0752 57.8462 43.0752Z" fill="#C2BEC9"/>
<path d="M82.5111 7.16895H89.3059C90.6566 7.16895 91.7371 7.35596 92.5475 7.70921C93.3786 8.08323 94.0644 8.60271 94.5838 9.26765C95.1241 9.95336 95.5189 10.743 95.7475 11.6365C95.9968 12.53 96.1215 13.4858 96.1215 14.504C96.1215 16.0832 95.9345 17.3092 95.5812 18.1819C95.228 19.0547 94.7293 19.7819 94.0851 20.3845C93.441 20.9663 92.7553 21.3612 92.028 21.5689C91.0306 21.8391 90.1163 21.9638 89.3059 21.9638H82.5111V7.16895ZM87.0825 10.5144V18.5975H88.2046C89.1605 18.5975 89.8462 18.4936 90.241 18.2858C90.6358 18.078 90.9683 17.704 91.1968 17.1845C91.4254 16.6651 91.5501 15.7923 91.5501 14.6079C91.5501 13.0287 91.3007 11.9689 90.7812 11.3871C90.2618 10.8053 89.4306 10.5144 88.2254 10.5144H87.0825Z" fill="#C2BEC9"/>
<path d="M97.389 17.0807L101.753 16.8106C101.857 17.5171 102.044 18.0574 102.334 18.4314C102.812 19.034 103.477 19.3249 104.35 19.3249C104.994 19.3249 105.514 19.1794 105.867 18.8678C106.22 18.5561 106.407 18.2028 106.407 17.808C106.407 17.434 106.241 17.0807 105.909 16.7691C105.576 16.4574 104.786 16.1872 103.56 15.9171C101.545 15.46 100.132 14.8574 99.2592 14.1093C98.3864 13.3613 97.9709 12.4054 97.9709 11.2418C97.9709 10.473 98.1994 9.76646 98.6358 9.08075C99.0722 8.39503 99.7371 7.87555 100.631 7.48074C101.524 7.08594 102.729 6.89893 104.267 6.89893C106.158 6.89893 107.612 7.25217 108.589 7.95867C109.586 8.66516 110.168 9.78724 110.355 11.3249L106.033 11.5743C105.909 10.9093 105.68 10.4314 105.306 10.1197C104.932 9.80802 104.433 9.66256 103.789 9.66256C103.249 9.66256 102.854 9.76646 102.584 9.99503C102.314 10.2236 102.189 10.4937 102.189 10.8262C102.189 11.0548 102.293 11.2833 102.522 11.4704C102.729 11.6574 103.249 11.8444 104.059 12.0106C106.054 12.447 107.488 12.8833 108.36 13.3197C109.233 13.7561 109.857 14.3171 110.251 14.9613C110.646 15.6054 110.833 16.3535 110.833 17.1639C110.833 18.1197 110.563 18.9924 110.044 19.782C109.524 20.5924 108.776 21.195 107.841 21.6106C106.906 22.0262 105.701 22.234 104.267 22.234C101.753 22.234 100.007 21.7561 99.0306 20.7794C98.0748 19.8028 97.5345 18.5769 97.389 17.0807Z" fill="#C2BEC9"/>
<path d="M111.997 17.0807L116.361 16.8106C116.464 17.5171 116.651 18.0574 116.942 18.4314C117.42 19.034 118.085 19.3249 118.958 19.3249C119.602 19.3249 120.122 19.1794 120.475 18.8678C120.828 18.5561 121.015 18.2028 121.015 17.808C121.015 17.434 120.849 17.0807 120.516 16.7691C120.184 16.4574 119.394 16.1872 118.168 15.9171C116.153 15.46 114.74 14.8574 113.867 14.1093C113.015 13.3613 112.579 12.4054 112.579 11.2418C112.579 10.473 112.807 9.76646 113.244 9.08075C113.68 8.39503 114.345 7.87555 115.238 7.48074C116.132 7.08594 117.337 6.89893 118.875 6.89893C120.766 6.89893 122.22 7.25217 123.197 7.95867C124.194 8.66516 124.776 9.78724 124.963 11.3249L120.641 11.5743C120.516 10.9093 120.288 10.4314 119.914 10.1197C119.54 9.80802 119.041 9.66256 118.397 9.66256C117.857 9.66256 117.462 9.76646 117.192 9.99503C116.922 10.2236 116.797 10.4937 116.797 10.8262C116.797 11.0548 116.901 11.2833 117.129 11.4704C117.337 11.6574 117.857 11.8444 118.667 12.0106C120.662 12.447 122.096 12.8833 122.968 13.3197C123.841 13.7561 124.464 14.3171 124.859 14.9613C125.254 15.6054 125.441 16.3535 125.441 17.1639C125.441 18.1197 125.171 18.9924 124.651 19.782C124.132 20.5924 123.384 21.195 122.449 21.6106C121.514 22.0262 120.309 22.234 118.875 22.234C116.361 22.234 114.615 21.7561 113.638 20.7794C112.662 19.8028 112.122 18.5769 111.997 17.0807Z" fill="#C2BEC9"/>
</g>
<defs>
<clipPath id="clip0_65_4895">
<rect width="124.883" height="48" fill="white" transform="translate(0.578674)"/>
</clipPath>
</defs>
</svg>
