<svg width="109" height="48" viewBox="0 0 109 48" fill="none" xmlns="http://www.w3.org/2000/svg">
<g clip-path="url(#clip0_65_4910)">
<path d="M41.3866 0.614599L27.275 34.2813H18.0677L11.1226 7.41235C10.7021 5.76126 10.336 5.15354 9.05447 4.45567C6.96016 3.31801 3.50175 2.25399 0.461792 1.5919L0.666888 0.614599H15.4895C17.376 0.614599 19.0746 1.87064 19.5061 4.04548L23.1758 23.5289L32.2351 0.614599H41.3866ZM53.8335 0.614599L46.6317 34.2813H37.9213L45.1231 0.614599H53.8335ZM77.4608 23.2894C77.4972 14.4056 65.177 13.9128 65.2576 9.94301C65.2872 8.73652 66.4365 7.45158 68.9527 7.12329C70.1991 6.96224 73.6424 6.83354 77.5427 8.63054L79.0685 1.48729C76.9728 0.729535 74.2763 0 70.9218 0C62.3112 0 56.254 4.57336 56.2058 11.1275C56.1494 15.9754 60.5321 18.6775 63.8281 20.2921C67.2232 21.9411 68.3615 23.001 68.3457 24.4745C68.3216 26.7333 65.6347 27.7333 63.1364 27.7705C58.7558 27.84 56.2162 26.5867 54.1907 25.6432L52.6098 33.0232C54.6477 33.9571 58.4034 34.7685 62.2933 34.8098C71.4469 34.8098 77.4339 30.2888 77.4608 23.2894ZM100.198 34.2813H108.251L101.215 0.614599H93.7851C92.1093 0.614599 90.7011 1.58708 90.0762 3.08263L77.0065 34.2813H86.1532L87.9674 29.2523H99.1424L100.198 34.2813ZM90.4754 22.3534L95.0618 9.71038L97.6964 22.3534H90.4754ZM64.9807 43.5483H61.4418V46.8422H65.4005V47.8326H60.249V38.6941H65.1975V39.6845H61.4418V42.5717H64.9807V43.5483ZM67.2288 38.2066H68.4215V47.8323H67.2288V38.2066ZM71.4303 44.768C71.4572 46.382 72.4744 47.0461 73.6802 47.0461C74.535 47.0461 75.0636 46.8968 75.4978 46.7075L75.7146 47.5616C75.2941 47.7509 74.5625 47.9814 73.5178 47.9814C71.4985 47.9814 70.292 46.6394 70.292 44.66C70.292 42.6806 71.4572 41.1348 73.3691 41.1348C75.5247 41.1348 76.0808 43.0061 76.0808 44.2126C76.0808 44.4563 76.067 44.6325 76.0395 44.768H71.4303ZM74.928 43.9139C74.9417 43.1686 74.6162 41.9889 73.2741 41.9889C72.0539 41.9889 71.5384 43.0874 71.4434 43.9139H74.928ZM82.5718 47.6018C82.2601 47.7512 81.5684 47.9817 80.6874 47.9817C78.7081 47.9817 77.4204 46.6396 77.4204 44.6327C77.4204 42.6128 78.8024 41.1351 80.9448 41.1351C81.6496 41.1351 82.2731 41.3106 82.5987 41.4875L82.3282 42.396C82.0426 42.2466 81.5952 42.0835 80.9448 42.0835C79.4397 42.0835 78.6269 43.2088 78.6269 44.5653C78.6269 46.0835 79.6028 47.0189 80.9042 47.0189C81.5822 47.0189 82.0295 46.8564 82.3681 46.7071L82.5718 47.6018ZM85.9183 39.6978V41.2704H87.6258V42.1782H85.9183V45.7171C85.9183 46.5313 86.1488 46.9918 86.813 46.9918C87.1378 46.9918 87.3285 46.9649 87.5047 46.9098L87.559 47.819C87.3285 47.9002 86.9623 47.9814 86.5012 47.9814C85.9451 47.9814 85.4978 47.7915 85.2135 47.4804C84.888 47.1136 84.7524 46.5313 84.7524 45.7584V42.1782H83.7352V41.2704H84.7524V40.0502L85.9183 39.6978ZM89.2923 43.3178C89.2923 42.5449 89.2779 41.8807 89.2379 41.2703H90.282L90.3364 42.5717H90.3763C90.675 41.6908 91.4066 41.1347 92.2063 41.1347C92.3288 41.1347 92.4238 41.1485 92.5325 41.1615V42.2875C92.41 42.26 92.2889 42.26 92.1251 42.26C91.2855 42.26 90.6881 42.8835 90.5256 43.7789C90.4988 43.9413 90.485 44.1444 90.485 44.335V47.8326H89.2923V43.3178ZM99.8653 44.4971C99.8653 46.9238 98.1701 47.9816 96.5975 47.9816C94.8349 47.9816 93.4529 46.6795 93.4529 44.6058C93.4529 42.4227 94.9031 41.135 96.7062 41.135C98.5906 41.135 99.8653 42.5039 99.8653 44.4971ZM94.6725 44.5652C94.6725 46.0023 95.486 47.0869 96.6519 47.0869C97.7909 47.0869 98.6443 46.0153 98.6443 44.5377C98.6443 43.4262 98.0889 42.0291 96.6787 42.0291C95.283 42.0291 94.6725 43.3312 94.6725 44.5652ZM101.693 43.0462C101.693 42.3552 101.679 41.8129 101.639 41.2705H102.696L102.764 42.3552H102.791C103.117 41.7447 103.876 41.135 104.96 41.135C105.868 41.135 107.278 41.6773 107.278 43.9272V47.8322H106.086V44.0497C106.086 42.9925 105.693 42.1109 104.567 42.1109C103.795 42.1109 103.184 42.667 102.968 43.3311C102.913 43.4805 102.886 43.6835 102.886 43.8872V47.8322H101.693V43.0462Z" fill="#C2BEC9"/>
</g>
<defs>
<clipPath id="clip0_65_4910">
<rect width="107.789" height="48" fill="white" transform="translate(0.461792)"/>
</clipPath>
</defs>
</svg>
